<?xml version="1.0" encoding="utf-8"?>
<!-- Generator: Adobe Illustrator 26.5.1, SVG Export Plug-In . SVG Version: 6.00 Build 0)  -->
<svg version="1.1" id="Layer_1" xmlns="http://www.w3.org/2000/svg" xmlns:xlink="http://www.w3.org/1999/xlink" x="0px" y="0px"
	 viewBox="0 0 14.8 25.7" style="enable-background:new 0 0 14.8 25.7;" xml:space="preserve">
<style type="text/css">
	.st0{fill:#333333;}
</style>
<g>
	<g>
		<path class="st0" d="M10.1,2.5c-0.7-0.2-1.5-0.2-2.2,0c-0.4-0.4-2.7-3-3.1-2.1c-0.6,2-0.6,4.1-0.7,6.2c0,0.3-0.1,0.7,0,1
			c0.2,0.6,1,1.3,0.5,2c-0.5,1-1.3,1.7-2,2.5c-1.5,2.3-2.5,5-2.4,7.8c-0.3,3.2,1.5,5.2,4.6,5.4c0,0,2.9,0,2.9,0c1.8,0.1,4,0,5.3-1.3
			c1.8-2.3,0.8-6-2-7c-1.5-0.5-3.2,0.3-1.9,1.9c0.3,0.4,0.7,0.7,1.1,0.9c0.6,0.4,0.5,1.4,0,1.9c-0.3,0.4-0.8,0.6-1.3,0.5
			c0,0-1.5,0-1.5,0l1.5,0c0.8,0.1,1.7-0.6,1.6-1.4c0-0.3-0.1-0.7-0.3-0.8c-0.8-0.5-1.8-1.2-1.6-2.3c0.1-0.6,0.6-0.9,1.1-1
			c1.5-0.3,3,0.7,3.8,1.9c1.2,1.6,1,4-0.2,5.6c-1.5,1.4-3.6,1.5-5.6,1.4c0,0-2.9,0-2.9,0c-3.3-0.3-5.3-2.4-5-5.8
			c-0.1-2.9,1-5.6,2.5-8c0.6-0.8,1.5-1.5,1.9-2.4C5,8.7,3.7,8,3.9,7.1C4,4.8,4,2.5,4.7,0.3C5.3-0.8,7.5,2,8,2.5
			C8.5,2.3,9.5,2.3,10.1,2.5L10.1,2.5z"/>
	</g>
	<g>
		<path class="st0" d="M11.2,2.5c0.8-0.9,1.6-1.9,2.7-2.5c0.2,0,0.3,0.1,0.4,0.2c0.7,2.1,0.4,4.4,0.5,6.5c-0.1,3.4,0.2,7.1-0.9,10.4
			c0.5-1.7,0.4-3.4,0.4-5.2c-0.1-3.9,0.4-7.9-0.3-11.6c0-0.1-0.1-0.1-0.1-0.1C12.9,0.8,12.1,1.7,11.2,2.5L11.2,2.5z"/>
	</g>
	<g>
		<path class="st0" d="M6.3,6.3c0.5,0.6,1.2,0.6,1.7,0C8.1,7.4,6.1,7.4,6.3,6.3L6.3,6.3z"/>
	</g>
	<g>
		<path class="st0" d="M10.7,6.2c0.4,0.7,1.4,0.8,1.6,0C12.7,7.4,10.5,7.4,10.7,6.2L10.7,6.2z"/>
	</g>
</g>
</svg>
