<?xml version="1.0" encoding="utf-8"?>
<!-- Generator: Adobe Illustrator 26.5.1, SVG Export Plug-In . SVG Version: 6.00 Build 0)  -->
<svg version="1.1" id="Layer_1" xmlns="http://www.w3.org/2000/svg" xmlns:xlink="http://www.w3.org/1999/xlink" x="0px" y="0px"
	 viewBox="0 0 400.8 312.3" style="enable-background:new 0 0 400.8 312.3;" xml:space="preserve">
<style type="text/css">
	.st0{fill:#555555;}
	.st1{fill:#FFFFFF;}
	.st2{fill:none;stroke:#555555;stroke-width:4;stroke-miterlimit:10;}
</style>
<g>
	<g>
		<g>
			<path class="st0" d="M238.3,264.6c-0.4,3.4,0.7,6.7,3,9.3c2,2.3,5,3.8,7.9,4.6c1.9,0.5,4,0.6,6,0.8c2.3,0.2,4.5,0.4,6.8,0.6
				c4.5,0.4,8.9,0.7,13.4,0.9c9,0.5,17.9,0.7,26.9,0.7c9,0,17.9-0.1,26.9-0.4c2.2-0.1,4.4,0,6.6-0.2c1.9-0.2,3.8-0.3,5.7-0.4
				c4-0.2,8-0.3,11.9-0.9c1.9-0.3,3.7-0.6,5.5-1.2c1.8-0.5,3.7-1.2,5.3-2.3c3-1.9,5.6-4.5,7.3-7.7c0.8-1.5,1.4-3.2,1.7-5
				c0.3-2.1,0.3-4.2,0.4-6.3c0.2-4.5,0.3-8.9,0.5-13.4c0.2-8.8,0.3-17.6,0.4-26.4c0-4.4,0-8.8,0-13.3c0-3.9,0.4-8-1.7-11.5
				c-1.1-1.8-3.2-2.6-5.1-3.4c-1.8-0.7-3.6-1.3-5.5-1.6c-3.7-0.7-7.5-0.8-11.3-0.6c-1.7,0.1-3.4,0.2-5.1,0.3c-1,0.1-2.1,0.9-2,2
				c0,1,0.9,2.1,2,2c3.5-0.2,6.9-0.5,10.4-0.4c1.9,0.1,3.4,0.2,5.1,0.5c1.7,0.3,3.5,0.8,5.1,1.5c0.5,0.2,1.6,0.7,2.2,1.1
				c0.2,0.1,0.4,0.2,0.6,0.4c-0.3-0.2,0.1,0.3-0.2-0.2c0.2,0.3,0.4,0.6,0.6,1c0.3,0.5-0.1-0.4,0.1,0.2c0.1,0.2,0.1,0.4,0.2,0.6
				c0.1,0.4,0.2,0.8,0.3,1.2c0,0.2,0.1,0.4,0.1,0.6c0,0,0.1,0.7,0,0.2c0.1,0.5,0.1,0.9,0.1,1.4c0,4.3,0,8.5,0,12.8
				c0,8.5-0.1,17-0.2,25.5c-0.1,4.3-0.2,8.6-0.3,12.9c-0.1,2.1-0.1,4.2-0.2,6.3c0,1.1-0.1,2.1-0.1,3.2c0,0.5,0,0.9-0.1,1.4
				c0,0.2,0,0.4,0,0.6c0,0.1,0,0.3,0,0.4c0-0.2,0-0.2,0,0.1c-0.6,3.2-2,5.6-4.3,7.8c-1.2,1.2-2,1.8-3.5,2.7c-1.4,0.8-3,1.3-4.8,1.8
				c-0.9,0.2-1.7,0.4-2.6,0.6c-0.4,0.1-0.9,0.2-1.3,0.2c-0.5,0.1-0.7,0.1-1.2,0.2c-1.9,0.2-3.8,0.3-5.6,0.4
				c-1.8,0.1-3.6,0.2-5.5,0.3c-1.9,0.1-3.8,0.3-5.7,0.4c-17.3,0.6-34.7,0.8-52,0.2c-8.7-0.3-17.3-0.9-26-1.7
				c-1.9-0.2-4.2-0.3-5.8-0.6c-0.6-0.1-1.2-0.3-1.8-0.5c-0.3-0.1-0.6-0.2-1-0.3c-0.1,0-0.6-0.3-0.2-0.1c-0.2-0.1-0.4-0.2-0.6-0.3
				c-0.6-0.3-1.2-0.6-1.7-1c-0.1-0.1-0.3-0.2-0.4-0.3c-0.4-0.3,0.3,0.3-0.1-0.1c-0.3-0.3-0.6-0.5-0.9-0.8c-0.2-0.2-0.4-0.5-0.7-0.7
				c-0.4-0.4,0.2,0.3-0.1-0.1c-0.1-0.1-0.2-0.3-0.3-0.4c-0.2-0.3-0.3-0.6-0.5-0.9c-0.1-0.1-0.1-0.3-0.2-0.5c0.2,0.4-0.1-0.2-0.1-0.3
				c-0.1-0.3-0.2-0.7-0.3-1c0-0.2-0.1-0.3-0.1-0.5c-0.1-0.6,0,0.4,0-0.2c0-0.8-0.1-1.5,0-2.3c0.1-1-1-2-2-2
				C239.1,262.6,238.4,263.4,238.3,264.6L238.3,264.6z"/>
		</g>
	</g>
	<g>
		<g>
			<path class="st0" d="M242.1,265.5c0.7-10.6,0.8-21.2,1.1-31.8c0.4-10.7,0.9-21.5,2.5-31.9c0.2-1.4,0.4-2.7,0.6-4.1
				c0.1-0.5,0.2-0.9,0.4-1.4c0.1-0.3-0.1,0.2,0,0c0.1-0.1,0.1-0.2,0.2-0.3c0.1-0.3,0.3-0.5,0.4-0.8c0.1-0.2,0.3-0.4,0.4-0.7
				c0-0.1,0.5-0.6,0.3-0.4c0.4-0.4,0.7-0.8,1.1-1.2c0.2-0.2,0.4-0.3,0.6-0.5c0.3-0.2-0.2,0.1,0.1,0c0.1-0.1,0.2-0.1,0.3-0.2
				c0.4-0.3,0.9-0.6,1.4-0.8c-0.3,0.2,0.3-0.1,0.4-0.1c0.2-0.1,0.5-0.1,0.7-0.2c0.1,0,0.2,0,0.4-0.1c-0.1,0-0.4,0,0,0
				c0.4,0,0.8,0,1.2-0.1c1.3-0.2,2.7-0.5,4-0.7c2.4-0.3,5.1-0.6,7.7-0.7c10.7-0.6,21.4,0.4,32,0.5c10.9,0,21.7,0.8,32.5,1.2
				c1.3,0,2.6,0.1,3.9,0.1c1,0,2-0.9,2-2c0-1.1-0.9-2-2-2c-11-0.3-22-1.1-33-1.3c-5.5-0.1-11-0.2-16.4-0.4
				c-5.4-0.2-10.8-0.4-16.3-0.2c-2.7,0.1-5.5,0.2-8.2,0.5c-1.4,0.2-2.9,0.3-4.3,0.6c-0.7,0.1-1.3,0.2-2,0.3c-0.3,0.1-0.7,0.2-1,0.2
				c0.3,0,0,0-0.1,0c-0.2,0-0.4,0-0.5,0.1c-4.7,0.6-8.7,4.7-10,9.1c-0.4,1.3-0.5,2.6-0.7,3.9c-0.2,1.5-0.4,3-0.6,4.5
				c-0.3,2.7-0.6,5.4-0.9,8.1c-0.5,5.5-0.8,10.9-1,16.4c-0.4,10.8-0.5,21.7-1.1,32.5c-0.1,1.3-0.1,2.7-0.2,4c-0.1,1,1,2,2,2
				C241.2,267.4,242,266.6,242.1,265.5L242.1,265.5z"/>
		</g>
	</g>
	<g>
		<g>
			<path class="st0" d="M334.2,191.1c4.1,0.1,8.3,0.2,12.4,0.3c1,0,2-0.9,2-2c0-1.1-0.9-2-2-2c-4.1-0.1-8.3-0.2-12.4-0.3
				c-1,0-2,0.9-2,2C332.2,190.2,333,191,334.2,191.1L334.2,191.1z"/>
		</g>
	</g>
	<g>
		<g>
			<path class="st0" d="M351.4,0c-15,0.6-30,0.9-45,1c-15.1,0.1-30.1,0.1-45.2,0c-8.5,0-17.1-0.1-25.6-0.1c-1,0-2,0.9-2,2
				c0,1.1,0.9,2,2,2C250.8,5,266,5.1,281.2,5.1c15,0,30.1-0.1,45.1-0.4c8.4-0.2,16.7-0.4,25.1-0.7c1,0,2-0.9,2-2
				C353.4,1,352.5,0,351.4,0L351.4,0z"/>
		</g>
	</g>
	<g>
		<g>
			<g>
				<path class="st1" d="M378.4,148.6c5.2,6.9,10.3,13.9,15.1,21.1c1.4,2,2.7,4.1,4.1,6.1c0.6,0.9,1.8,1.3,2.7,0.7
					c0.9-0.6,1.3-1.8,0.7-2.7c-4.7-7.2-9.6-14.3-14.8-21.3c-1.5-2-2.9-3.9-4.4-5.9c-0.6-0.8-1.8-1.4-2.7-0.7
					C378.3,146.4,377.7,147.7,378.4,148.6L378.4,148.6z"/>
			</g>
		</g>
		<g>
			<g>
				<path class="st0" d="M229,312.2c13.3-0.3,26.6-0.5,39.9-0.6c13.3-0.1,26.5-0.1,39.8,0c13.3,0.1,26.6,0.2,39.9,0.5
					c6.6,0.1,13.2,0.3,19.8,0.4c3.3,0.1,6.7,0.2,10,0.3c3,0.1,6.3,0.5,9.2-0.7c2.6-1,4.6-3.1,5.8-5.6c1.3-2.9,1.6-6,1.5-9.1
					c0-3.2-0.1-6.3,0-9.5c0.1-3.1,0.2-6.1,0.2-9.2c0-1.6,0-3.2,0-4.7c-0.1-2.6-4.1-2.6-4,0c0.1,6.1-0.2,12.3-0.2,18.4
					c0,4.9,1.1,11.7-3.2,15.2c-2,1.6-4.9,1.4-7.3,1.3c-3.2-0.1-6.4-0.2-9.7-0.3c-6.5-0.2-13.1-0.3-19.6-0.4
					c-13-0.2-26.1-0.4-39.1-0.5c-13-0.1-26.1-0.1-39.1,0c-13,0.1-26,0.2-39,0.5c-1.6,0-3.3,0.1-4.9,0.1
					C226.4,308.2,226.4,312.2,229,312.2L229,312.2z"/>
			</g>
		</g>
		<g>
			<g>
				<path class="st0" d="M395.1,272.9c0-8.4-0.1-16.7-0.1-25.1c0-8.4-0.1-16.7-0.1-25.1c0-4.7,0-9.5-0.1-14.2c0-1-0.9-2-2-2
					c-1.1,0-2,0.9-2,2c0,8.4,0.1,16.7,0.1,25.1c0,8.4,0.1,16.7,0.1,25.1c0,4.7,0,9.5,0.1,14.2c0,1,0.9,2,2,2
					C394.1,274.9,395.1,274,395.1,272.9L395.1,272.9z"/>
			</g>
		</g>
		<g>
			<g>
				<path class="st0" d="M395,208.7c0.1-9.7,0.1-19.4,0.1-29.2c0-9.5-0.1-19.1-0.1-28.6c0-5.5,0-11.1,0.1-16.6c0-1-0.9-2-2-2
					c-1.1,0-2,0.9-2,2c-0.1,9.7-0.1,19.4-0.1,29.2c0,9.5,0.1,19.1,0.1,28.6c0,5.5,0,11.1-0.1,16.6c0,1,0.9,2,2,2
					C394.1,210.7,395,209.8,395,208.7L395,208.7z"/>
			</g>
		</g>
		<g>
			<g>
				<path class="st0" d="M351.4,4c7.6-0.6,15.3-0.7,23-0.2c3.7,0.2,7.5,0.6,11,1.1c0.8,0.1,1.6,0.3,2.4,0.5c0.2,0.1,0.3,0.1,0.7,0.3
					c0.1,0,0.5,0.4,0.1,0.1c0.2,0.1,0.3,0.3,0.5,0.5c0.1,0.1,0.3,0.5,0.1,0.1c0.1,0.1,0.1,0.2,0.2,0.3c0.1,0.1,0.2,0.3,0.2,0.4
					c0,0.1,0.3,0.6,0.1,0.1c0.3,0.6,0.4,1.3,0.5,2c0,0.1,0.1,0.6,0,0.2c0,0.2,0.1,0.5,0.1,0.7c0,0.4,0,0.7,0.1,1.1
					c0,0.9,0,1.8,0,2.7c0,2.2,0,4.5,0,6.7c0,1,0.9,2,2,2c1.1,0,2-0.9,2-2c0-2.1,0-4.1,0-6.2c0-1.6,0-3.3-0.1-4.9
					c-0.2-1.6-0.5-3.2-1.4-4.7c-1-1.6-2.5-2.7-4.3-3.3c-1.8-0.6-3.9-0.7-5.8-0.9c-2-0.2-4.1-0.4-6.1-0.6c-4-0.3-8-0.5-12-0.5
					c-4.5,0-9,0.2-13.5,0.5c-1,0.1-2.1,0.9-2,2C349.5,3,350.3,4.1,351.4,4L351.4,4z"/>
			</g>
		</g>
		<g>
			<g>
				<path class="st0" d="M390.8,20.9c-0.3,12.4-0.3,24.7-0.2,37.1c0,3.5,0.1,7,0.2,10.5c0,1,0.9,2,2,2c1.1,0,2-0.9,2-2
					c-0.3-12.4-0.3-24.7-0.2-37.1c0-3.5,0.1-7,0.2-10.5c0-1-0.9-2-2-2C391.7,18.9,390.8,19.8,390.8,20.9L390.8,20.9z"/>
			</g>
		</g>
		<g>
			<g>
				<path class="st0" d="M390.8,66.9c-0.7,10.1-0.8,20.2-0.5,30.4c0.1,2.9,0.2,5.8,0.4,8.7c0.1,1,0.9,2.1,2,2c1,0,2.1-0.9,2-2
					c-0.6-10.1-0.7-20.2-0.3-30.4c0.1-2.9,0.3-5.8,0.4-8.7c0.1-1-1-2-2-2C391.6,64.9,390.9,65.7,390.8,66.9L390.8,66.9z"/>
			</g>
		</g>
		<g>
			<g>
				<path class="st0" d="M390.8,105.5c0.5,9.6,0.6,19.2,0.3,28.8c0,1,0.9,2,2,2c1.1,0,2-0.9,2-2c0.2-9.6,0.1-19.2-0.3-28.8
					c-0.1-1-0.9-2-2-2C391.7,103.6,390.7,104.4,390.8,105.5L390.8,105.5z"/>
			</g>
		</g>
		<g>
			<g>
				<path class="st0" d="M217.8,16.2c0-1.6-0.1-3.3,0-4.9c0-0.2,0-0.5,0.1-0.7c0-0.1,0.1-0.5,0-0.2c0.1-0.5,0.2-0.9,0.3-1.4
					c0.1-0.2,0.1-0.4,0.2-0.6c0-0.1,0.3-0.6,0.1-0.2c0.1-0.2,0.2-0.3,0.3-0.5c0-0.1,0.1-0.1,0.1-0.2c0,0,0.3-0.4,0.1-0.2
					c-0.2,0.2,0,0,0.1-0.1c0.1-0.1,0.2-0.2,0.2-0.3c0.1-0.1,0.3-0.3,0.5-0.4c0.2-0.1,0,0-0.1,0c0.1-0.1,0.2-0.1,0.3-0.2
					c0.2-0.1,0.4-0.2,0.6-0.4c0.1-0.1,0.2-0.1,0.3-0.2c0,0,0.3-0.1,0.1,0c-0.2,0.1,0.1,0,0.2-0.1c0.1,0,0.2-0.1,0.3-0.1
					c0.4-0.1,0.9-0.3,1.3-0.4c0.2,0,0.4-0.1,0.6-0.1c0.1,0,0.2,0,0.4-0.1c0,0,0.3-0.1,0.1,0c-0.2,0,0.1,0,0.2,0c0.1,0,0.2,0,0.3,0
					c0.2,0,0.5,0,0.7-0.1c1.1-0.1,2.2-0.1,3.3-0.2c2.7-0.1,5.4-0.1,8.1,0c1,0,2-0.9,2-2c0-1.1-0.9-2-2-2c-2.6-0.1-5.2-0.1-7.7,0
					c-2.3,0.1-4.6,0.1-6.8,0.6c-2.1,0.4-4.1,1.3-5.6,2.8c-1.5,1.6-2.1,3.6-2.4,5.8c-0.3,2.1-0.1,4.1-0.1,6.2c0,1,0.9,2,2,2
					C216.9,18.1,217.8,17.3,217.8,16.2L217.8,16.2z"/>
			</g>
		</g>
		<g>
			<g>
				<path class="st0" d="M229,308.2c-0.9,0-1.8-0.2-2.5-0.6c-0.2-0.1-0.4-0.2-0.6-0.3c-0.1-0.1-0.2-0.1-0.3-0.2c0.3,0.2,0.1,0.1,0,0
					c-0.4-0.3-0.7-0.6-1-1c-0.4-0.5-0.5-0.5-0.8-1c-0.3-0.5-0.6-1-0.9-1.5c-0.1-0.2-0.1-0.3-0.2-0.5c0,0-0.2-0.3,0-0.1
					c-0.1-0.3-0.2-0.5-0.3-0.8c-0.2-0.6-0.4-1.1-0.6-1.7c-0.7-2.2-1.3-4.4-1.6-6.6c0-0.3-0.1-0.5-0.1-0.8c0-0.1,0-0.3-0.1-0.4
					c0,0.3,0,0,0-0.1c-0.1-0.6-0.1-1.2-0.2-1.8c-0.1-1.2-0.2-2.3-0.2-3.5c-0.1-2.8-0.1-5.7,0-8.5c0-1-0.9-2-2-2c-1.1,0-2,0.9-2,2
					c-0.2,5.3-0.2,10.5,0.7,15.8c0.4,2.4,1,4.8,1.7,7.1c0.9,2.6,1.9,5.1,3.8,7.1c1.9,2.1,4.4,3.3,7.3,3.3c1,0,2-0.9,2-2
					C230.9,309.1,230.1,308.2,229,308.2L229,308.2z"/>
			</g>
		</g>
		<g>
			<g>
				<path class="st0" d="M219.6,278.8c0-3.2-0.1-6.4-0.1-9.6c-0.1-8.1-0.2-16.2-0.2-24.2c-0.1-10.7-0.2-21.4-0.3-32.1
					c-0.1-11.1-0.2-22.2-0.3-33.2c-0.1-9.2-0.1-18.4-0.1-27.6c0-5-0.1-10.1,0.1-15.2c0.2-6.7,0.1-13.5,0.1-20.2
					c-0.1-11.2-0.2-22.4-0.3-33.6c-0.1-9.8-0.2-19.7-0.4-29.5c-0.1-7.6-0.2-15.2-0.2-22.8c0-4.9,0-9.8-0.1-14.7c0-2.6-4-2.6-4,0
					c0,10.9,0,21.9,0.2,32.8c0.1,8.6,0.2,17.3,0.3,25.9c0.1,11.4,0.3,22.8,0.3,34.2c0.1,8.4,0.2,16.7,0,25.1
					c-0.1,4.2-0.2,8.5-0.2,12.7c0,8.4,0,16.8,0.1,25.2c0.1,10.8,0.1,21.7,0.2,32.5c0.1,11,0.2,22,0.3,33c0.1,8.9,0.2,17.9,0.3,26.8
					c0,4.6,0.1,9.2,0.1,13.8c0,0.2,0,0.4,0,0.6C215.6,281.4,219.6,281.4,219.6,278.8L219.6,278.8z"/>
			</g>
		</g>
	</g>
	<g>
		<g>
			<path class="st0" d="M354.4,189.4c-0.3,11.5-0.6,23-0.7,34.6c-0.1,11.5,0.1,23,0.7,34.5c0.2,3.1,0.3,6.1,0.2,9.2
				c-0.1,3.2-0.3,5.9-1.1,9c-0.2,1,0.3,2.2,1.4,2.5c1,0.2,2.2-0.3,2.5-1.4c1.3-5.5,1.4-11.2,1.1-16.8c-0.3-5.7-0.6-11.5-0.7-17.2
				c-0.3-11.5-0.2-23,0-34.6c0.1-6.5,0.3-13.1,0.5-19.6c0-1-0.9-2-2-2C355.3,187.5,354.4,188.3,354.4,189.4L354.4,189.4z"/>
		</g>
	</g>
	<g>
		<g>
			<path class="st0" d="M326.1,189.2c-0.3,11.7-0.6,23.4-0.9,35.1c-0.1,5.8-0.4,11.5-0.3,17.3c0,5.8,0.5,11.6,1,17.4
				c0.5,6.4,1,12.9,0.9,19.4c0,1,0.9,2,2,2c1.1,0,2-0.9,2-2c0.2-11.6-1.5-23-1.8-34.6c-0.1-5.8,0.1-11.5,0.2-17.3
				c0.1-5.9,0.3-11.8,0.4-17.7c0.2-6.6,0.3-13.1,0.5-19.7c0-1-0.9-2-2-2C327,187.3,326.2,188.1,326.1,189.2L326.1,189.2z"/>
		</g>
	</g>
	<g>
		<g>
			<path class="st0" d="M299.2,188.2c-0.2,6-0.3,12.1-0.5,18.1c-0.1,3-0.1,5.9-0.3,8.9c-0.2,2.7-0.8,5.4-1.3,8.2c-1,6-1.4,12-1.7,18
				c-0.3,5.9-0.4,11.9-0.4,17.8c0.1,6.8,0.4,13.5,1,20.2c0.1,1,0.9,2.1,2,2c1,0,2.1-0.9,2-2c-1-11.9-1.2-23.9-0.7-35.8
				c0.3-5.8,0.6-11.9,1.4-17.5c0.4-2.9,1.1-5.8,1.5-8.8c0.4-2.9,0.4-5.9,0.4-8.8c0.2-6.8,0.3-13.6,0.5-20.4c0-1-0.9-2-2-2
				C300.1,186.3,299.2,187.1,299.2,188.2L299.2,188.2z"/>
		</g>
	</g>
	<g>
		<g>
			<path class="st0" d="M271.3,187.9c0,11.9,0,23.8,0,35.7c0,6,0,12,0,18c0,5.9,0.1,11.8-0.2,17.7c-0.4,6.6-1.7,13.2-0.7,19.8
				c0.2,1,1.5,1.7,2.5,1.4c1.1-0.4,1.6-1.3,1.4-2.5c-0.8-5.4,0.3-11.4,0.7-17c0.4-5.8,0.3-11.7,0.3-17.6c0-11.9,0-23.7,0-35.6
				c0-6.7,0-13.3,0-20c0-1-0.9-2-2-2C272.2,186,271.3,186.8,271.3,187.9L271.3,187.9z"/>
		</g>
	</g>
	<g>
		<g>
			<path class="st0" d="M261.8,26.5c-8.6,0.9-17.3,2.5-25,6.7c-6.9,3.8-12.7,9.8-15.4,17.2c-2.7,7.4-1.5,15.4,2.8,22
				c4.5,7,11.5,11.7,19.2,14.6c4,1.5,8.2,2.5,12.4,3.3c4.5,0.8,9.2,1.7,13.8,1.4c4.6-0.3,9.2-1.6,13.7-2.9c4.1-1.2,8.2-2.7,11.5-5.4
				c1.7-1.4,3.1-3,4.5-4.6c1.3-1.5,2.7-3,4.1-4.5c2.8-2.9,5.8-5.7,7.8-9.2c4.1-7.1,3.2-16-1.1-22.8c-4.4-6.9-11.9-11.2-19.6-13.3
				c-3.7-1-7.6-1.6-11.5-1.9c-4-0.4-8-0.5-12-0.6C265.3,26.5,263.6,26.5,261.8,26.5c-1,0-2,0.9-2,2c0,1.1,0.9,2,2,2
				c3.6,0,7.3,0,10.9,0.2c1.9,0.1,3.9,0.2,5.8,0.4c0.9,0.1,1.9,0.2,2.8,0.3c0.5,0.1,0.9,0.1,1.4,0.2c-0.3,0,0.2,0,0.3,0
				c0.2,0,0.4,0.1,0.7,0.1c1.7,0.3,3.5,0.6,5.1,1.1c0.9,0.2,1.8,0.5,2.7,0.8c0.4,0.1,0.9,0.3,1.3,0.5c0.2,0.1,0.4,0.2,0.7,0.3
				c0.1,0,0.2,0.1,0.3,0.1c0,0,0.5,0.2,0.3,0.1c0.1,0.1,0.7,0.3,1.1,0.5c0.5,0.2,0.9,0.4,1.4,0.7c0.8,0.4,1.6,0.9,2.4,1.4
				c1.7,1.1,2.8,1.9,4.2,3.2c0.7,0.6,1.3,1.3,1.9,2c0.1,0.2,0.3,0.4,0.4,0.5c0.1,0.1,0.3,0.4,0.2,0.2c0.3,0.4,0.6,0.8,0.8,1.2
				c0.5,0.8,1,1.6,1.4,2.4c0.2,0.4,0.4,0.8,0.5,1.1c-0.1-0.3,0.1,0.3,0.1,0.3c0.1,0.2,0.2,0.5,0.3,0.7c0.3,0.9,0.5,1.7,0.7,2.6
				c0.1,0.4,0.2,0.8,0.2,1.2c0.1,0.4,0,0.1,0,0c0,0.1,0,0.2,0,0.3c0,0.3,0.1,0.5,0.1,0.8c0.1,0.9,0.1,1.8,0,2.7c0,0.2,0,0.4-0.1,0.7
				c0,0.1-0.1,0.6,0,0.2c-0.1,0.5-0.2,0.9-0.3,1.4c-0.2,0.9-0.5,1.7-0.8,2.6c-0.1,0.2,0,0,0,0c-0.1,0.1-0.1,0.2-0.2,0.4
				c-0.1,0.2-0.2,0.4-0.3,0.5c-0.2,0.4-0.5,0.9-0.7,1.3c-1,1.7-1.9,2.7-3.2,4.2c-2.6,2.9-5.4,5.5-7.9,8.4c-1.3,1.6-2.7,3.1-4.2,4.4
				c-0.1,0.1-0.5,0.4-0.3,0.3c-0.2,0.1-0.4,0.3-0.6,0.4c-0.4,0.3-0.9,0.6-1.3,0.8c-0.8,0.5-1.7,0.9-2.6,1.3c0.2-0.1-0.2,0.1-0.3,0.1
				c-0.2,0.1-0.5,0.2-0.7,0.3c-0.5,0.2-1,0.4-1.5,0.5c-0.9,0.3-1.9,0.6-2.8,0.9c-2,0.6-4.1,1.1-6.2,1.6c-2.2,0.5-4.3,0.9-6.4,1.1
				c-2.2,0.2-4.5,0-6.7-0.3c-3.8-0.5-8.1-1.3-12-2.3c-2-0.5-3.9-1.1-5.9-1.8c-1.9-0.7-3.4-1.4-5.3-2.3c-1.7-0.9-3.4-1.9-5-3.1
				c-0.1-0.1-0.2-0.2-0.3-0.2c0,0-0.3-0.2-0.1-0.1c0.2,0.1-0.1-0.1-0.1-0.1c-0.1-0.1-0.2-0.2-0.3-0.2c-0.3-0.3-0.7-0.6-1-0.9
				c-0.7-0.6-1.3-1.2-1.9-1.9c-0.6-0.6-1.2-1.3-1.8-2c-0.1-0.1-0.2-0.2-0.2-0.3c0,0,0.2,0.2,0,0c-0.1-0.2-0.3-0.4-0.4-0.5
				c-0.3-0.4-0.5-0.7-0.8-1.1c-0.5-0.7-0.9-1.5-1.4-2.3c-0.2-0.4-0.4-0.8-0.6-1.2c-0.1-0.2-0.2-0.3-0.2-0.5c-0.2-0.4-0.1-0.1,0,0
				c0-0.1-0.1-0.2-0.1-0.3c-0.6-1.6-1.1-3.3-1.4-5.1c0.1,0.4,0-0.2,0-0.3c0-0.2,0-0.4-0.1-0.7c0-0.4-0.1-0.9-0.1-1.3
				c0-0.9,0-1.8,0.1-2.6c0-0.4,0-0.1,0,0c0-0.1,0-0.2,0-0.3c0-0.2,0.1-0.4,0.1-0.6c0.1-0.5,0.2-0.9,0.3-1.4c0.2-0.8,0.5-1.7,0.8-2.5
				c0.1-0.2,0.1-0.4,0.2-0.5c0,0,0.2-0.4,0.1-0.2c-0.1,0.2,0-0.1,0-0.1c0.2-0.4,0.4-0.9,0.6-1.3c0.4-0.8,0.8-1.6,1.3-2.3
				c0.2-0.3,0.4-0.7,0.7-1c0.1-0.2,0.3-0.4,0.4-0.5c0.1-0.1,0.1-0.2,0.2-0.2c0,0,0.3-0.4,0.2-0.3c-0.1,0.2,0.1-0.1,0.1-0.1
				c0.1-0.1,0.2-0.2,0.2-0.3c0.1-0.1,0.2-0.3,0.4-0.4c0.3-0.4,0.6-0.7,1-1.1c0.6-0.7,1.2-1.3,1.9-1.9c0.3-0.3,0.6-0.6,0.9-0.8
				c0.2-0.1,0.3-0.3,0.5-0.4c0.1-0.1,0.1-0.1,0.2-0.2c0,0,0.4-0.3,0.3-0.2c-0.2,0.1,0.1-0.1,0.1-0.1c0.1-0.1,0.2-0.2,0.3-0.2
				c0.2-0.1,0.3-0.2,0.5-0.3c0.4-0.3,0.8-0.5,1.2-0.8c0.9-0.5,1.7-1.1,2.6-1.5c0.9-0.5,1.8-0.9,2.7-1.3c0.8-0.3,1.6-0.7,2.5-1
				c3.8-1.4,7.8-2.3,11.8-3c2-0.3,3.5-0.5,5.6-0.7c1-0.1,2.1-0.8,2-2C263.8,27.5,262.9,26.4,261.8,26.5L261.8,26.5z"/>
		</g>
	</g>
	<g>
		<g>
			<path class="st0" d="M306.5,14.3c-1.2,0-2.6,0.4-3.7,0.9c-1.8,0.7-2.9,2.2-3.9,3.8c-1.7,2.8-1.3,6.6,1.1,8.9
				c1.4,1.4,3.2,1.8,5.1,2c1.6,0.2,3.3,0.3,4.9-0.1c3.8-1.1,5.1-5.8,4.6-9.3c-0.6-4-4.5-7.1-8.6-6.1c-1,0.3-1.7,1.4-1.4,2.5
				c0.3,1,1.4,1.7,2.5,1.4c0.1,0,0.6-0.1,0.1-0.1c0.1,0,0.2,0,0.3,0c0.1,0,0.3,0,0.4,0c0.3,0-0.5-0.1,0,0c0.1,0,0.2,0.1,0.3,0.1
				c0,0,0.5,0.2,0.2,0.1c-0.3-0.1,0.2,0.1,0.2,0.1c0.2,0.1,0.3,0.2,0.4,0.3c0.5,0.3-0.2-0.2,0.1,0c0.1,0.1,0.2,0.2,0.3,0.3
				c0.1,0.1,0.2,0.2,0.2,0.2c0,0.1,0.4,0.5,0.1,0.1c0.1,0.2,0.3,0.4,0.4,0.7c0.2,0.3-0.1-0.4,0.1,0.1c0.1,0.2,0.1,0.4,0.2,0.6
				c0,0.1,0.1,0.3,0.1,0.4c0.1,0.6,0-0.3,0,0.2c0,0.3,0,0.6,0,0.9c0,0.2,0,0.3,0,0.5c0-0.3,0,0,0,0.1c-0.1,0.4-0.2,0.8-0.3,1.2
				c0,0.1-0.1,0.3-0.1,0.4c-0.2,0.6,0.1-0.2-0.1,0.2c-0.1,0.3-0.3,0.5-0.4,0.8c-0.2,0.4,0.2-0.2-0.1,0.2c-0.1,0.1-0.2,0.2-0.3,0.3
				c0.3-0.3,0,0-0.1,0c-0.1,0-0.1,0.1-0.2,0.1c0.2-0.1,0.2-0.1,0,0c-0.2,0.1-0.5,0.1-0.7,0.2c-0.3,0.1,0.5,0-0.1,0
				c-0.1,0-0.2,0-0.4,0c-0.6,0-1.3,0-1.9-0.1c-0.3,0-0.6-0.1-0.9-0.1c0.4,0-0.3,0-0.3,0c-0.1,0-0.3-0.1-0.4-0.1
				c-0.3-0.1-0.7-0.2-1-0.3c0.1,0,0.2,0.1,0,0c-0.1-0.1-0.3-0.2-0.4-0.2c-0.4-0.2,0.3,0.3-0.1-0.1c-0.1-0.1-0.2-0.1-0.2-0.2
				c-0.1-0.1-0.2-0.2-0.3-0.3c-0.2-0.2,0.2,0.4,0,0c-0.1-0.2-0.3-0.4-0.4-0.7c-0.1-0.1-0.1-0.3,0,0c0-0.2-0.1-0.3-0.1-0.4
				c0-0.1-0.1-0.3-0.1-0.4c0-0.1,0-0.5,0,0c0-0.3,0-0.5,0-0.8c0-0.1,0.1-0.4,0,0.1c0-0.1,0-0.3,0.1-0.4c0-0.1,0.1-0.2,0.1-0.4
				c0.1-0.4-0.2,0.3,0.1-0.2c0.4-0.6,0.7-1.2,1.2-1.8c0.3-0.5-0.1,0.1,0.1-0.1c0.1-0.2,0.3-0.3,0.4-0.5c0.1-0.1,0.3-0.2,0,0
				c0.2-0.1,0.4-0.3,0.1-0.1c0.4-0.2,1-0.3,1.5-0.5c0.3-0.1,0.6-0.2,0.9-0.2c0.1,0,0.2,0,0.3-0.1c0.4-0.1-0.5,0,0,0c1,0,2-0.9,2-2
				C308.5,15.3,307.6,14.3,306.5,14.3L306.5,14.3z"/>
		</g>
	</g>
	<g>
		<g>
			<path class="st0" d="M312.1,31.7c-0.2,5.8-0.4,11.6-0.6,17.3c0,1.4-0.4,3.1,0.4,4.3c0.9,1.5,2.6,1.4,4.1,1.3
				c2.9-0.2,5.7-0.4,8.6-0.6c11.5-0.6,23.1-0.8,34.7-0.6c2.9,0.1,5.7,0.2,8.6,0.3c1.4,0.1,2.9,0.1,4.3,0.2c1.4,0.1,2.9,0.3,4.3,0.1
				c1.8-0.3,2.5-1.9,2.6-3.5c0-1.5,0-2.9,0-4.4c0-2.9,0-5.7,0-8.6c0-1.4,0.1-2.8,0-4.2c-0.1-1.5-0.7-2.9-2-3.6
				c-1.1-0.6-2.4-0.7-3.6-0.7c-1.4,0-2.8,0.1-4.1,0.2c-5.8,0.2-11.6,0.4-17.4,0.5c-11.5,0.2-23.1,0.2-34.6,0c-1.4,0-2.8-0.1-4.2-0.1
				c-1,0-2,0.9-2,2c0,1.1,0.9,2,2,2c10.9,0.3,21.9,0.3,32.9,0.2c5.5-0.1,11-0.2,16.4-0.3c2.8-0.1,5.6-0.2,8.3-0.3
				c1.2,0,2.4-0.2,3.6-0.1c0.1,0,0.2,0,0.3,0c-0.1,0-0.4-0.1,0,0c0.1,0,0.2,0.1,0.3,0.1c0.1,0,0.3,0.2,0,0c0.1,0.1,0.2,0.1,0.3,0.2
				c0,0-0.4-0.2-0.1,0c-0.1-0.1-0.1-0.3,0,0c-0.1-0.3,0.1,0.2,0,0c-0.1-0.2,0,0.2,0,0.2c0,0.1,0,0.2,0,0.3c0,0.3,0,0.6,0,0.9
				c0,0.7,0,1.5,0,2.2c0,1.4,0,2.7,0,4.1c0,2.7,0,5.5,0,8.2c0,0.3,0,0.7,0,1c0,0.2,0,0.3,0,0.5c0,0,0,0.1,0,0.1c0,0.2,0,0.3,0,0.1
				c0,0,0.5-0.7,0.5-0.7c0.1-0.1,0.2-0.1,0,0c0.3-0.1,0.2,0,0,0c-0.2,0-0.4,0-0.6,0c-1.4-0.1-2.7-0.2-4.1-0.2
				c-2.7-0.1-5.5-0.2-8.2-0.3c-10.9-0.3-21.9-0.2-32.8,0.2c-2.7,0.1-5.5,0.3-8.2,0.4c-1.4,0.1-2.7,0.2-4.1,0.3c-0.7,0-1.3,0.1-2,0.1
				c-0.3,0-0.6,0-0.8,0.1c-0.2,0-0.2-0.1,0,0c-0.4-0.2,0.3,0.3,0.3,0.4c0.1,0.1,0.2,0.2,0.3,0.3c0,0.2,0,0.2,0,0.1
				c0-0.1,0-0.3,0-0.4c0-0.3,0-0.7,0-1c0-0.7,0.1-1.4,0.1-2.1c0-1.4,0.1-2.7,0.1-4.1c0.1-2.7,0.2-5.4,0.3-8.2c0-1.4,0.1-2.7,0.1-4.1
				c0-1-0.9-2-2-2C313,29.7,312.1,30.5,312.1,31.7L312.1,31.7z"/>
		</g>
	</g>
	<g>
		<g>
			<path class="st0" d="M255.2,106.1c2.7-1.3,6-2.2,9.2-2.8c3.3-0.6,6.6-1.1,9.9-1.7c1.7-0.3,3.3-0.6,4.8-1.3
				c1.6-0.6,3.1-1.4,4.5-2.2c2.8-1.5,5.5-3.4,8.1-5.2c3.1-2.3,6-4.6,9-6.8c-1-0.6-2-1.2-3-1.7c0.1,0.5,0.1,1,0.1,1.5
				c0,0.1,0,0.2,0,0.3c-0.1-0.2,0.1-0.4,0-0.1c0,0.1-0.1,0.3-0.1,0.4c0,0,0.2-0.5,0.1-0.3c0,0.1-0.2,0.3,0,0c0.2-0.3-0.1,0,0.2-0.2
				c0.3-0.2,0.2-0.1,0.1-0.1c0.4-0.2,0.6-0.2,1-0.2c0.4,0.1,0,0,0.4,0.1c0.4,0.2,0.2,0.1,0.1,0c0.3,0.2,0.3,0.2,0.5,0.5
				c-0.2-0.3,0.2,0.5,0.1,0.2c-0.1-0.3,0,0.6,0,0.2c0-0.4-0.1,0.5,0,0.1c0,0,0.1-0.2,0.1-0.2c0,0-0.2,0.5-0.1,0.2
				c0.1-0.1,0.3-0.5,0.1-0.2c-0.2,0.3,0.2-0.2,0.2-0.2c0.1-0.1,0.1-0.1,0.2-0.2c0.3-0.3-0.4,0.2,0.1,0c-1-0.6-2-1.2-3-1.7
				c0.6,4.7,1.1,9.5,1.7,14.2c0.3,2.1,0.4,4.2,1.4,6.1c0.7,1.4,1.8,2.5,3,3.5c0.4,0.3,0.7,0.6,1.1,0.9c0.1,0.1,0.3,0.2,0.4,0.3
				c0.1,0,0.1,0.1,0.2,0.1c-0.4-0.3,0,0,0,0c0.6,0.5,1.2,1,1.7,1.5c0.3,0.3,0.5,0.5,0.8,0.8c0.1,0.1,0.3,0.4,0.1,0.1
				c0.1,0.2,0.3,0.4,0.5,0.6c0.6,0.8,1.2,1.7,1.7,2.5c2.3,3.4,4.5,6.9,6.2,10.6c0.9,1.9,1.7,3.9,2.3,6.2c0.3,1.1,0.5,2.2,0.7,3.3
				c0,0.2,0,0,0,0c0,0.2,0,0.3,0.1,0.5c0,0.3,0.1,0.6,0.1,0.8c0,0.6,0.1,1.2,0.1,1.8c0,1,0.9,2,2,2c1.1,0,2-0.9,2-2
				c-0.1-8.5-4-16.2-8.6-23.2c-1.1-1.7-2.3-3.4-3.4-5c-1-1.4-2.2-2.5-3.5-3.5c-0.4-0.3-0.8-0.6-1.1-0.9c-0.2-0.1,0.1,0.1,0.1,0.1
				c-0.1-0.1-0.2-0.1-0.2-0.2c-0.2-0.1-0.3-0.3-0.5-0.4c-0.6-0.5-1.1-0.9-1.6-1.5c-0.1-0.1-0.4-0.5-0.1-0.1
				c-0.1-0.1-0.2-0.2-0.3-0.4c-0.1-0.1-0.2-0.3-0.3-0.5c-0.1-0.1-0.3-0.7-0.2-0.3c-0.3-0.9-0.4-1.7-0.6-2.7
				c-0.7-5-1.2-10.3-1.9-15.4c-0.1-0.7-0.3-1.3-1-1.7c-0.6-0.3-1.4-0.4-2,0c-1.1,0.8-2.1,1.8-2.5,3.2c-0.3,1.3,0.1,2.7,1.3,3.4
				c1.3,0.8,2.8,0.3,3.6-0.9c0.7-1.1,0.7-2.6,0.6-3.9c-0.1-0.7-0.3-1.3-1-1.7c-0.6-0.3-1.5-0.4-2,0c-5.2,4-10.3,8.2-16.1,11.5
				c-1.4,0.8-2.8,1.5-4.2,2.2c0.1,0-0.6,0.2-0.4,0.2c0.2-0.1-0.4,0.2-0.4,0.1c-0.3,0.1-0.7,0.3-1,0.4c-0.9,0.2-1.8,0.4-2.7,0.6
				c-3.3,0.6-6.6,1.1-9.8,1.7c-3.8,0.7-7.4,1.7-10.9,3.4c-0.9,0.5-1.3,1.9-0.7,2.7C253.1,106.4,254.2,106.6,255.2,106.1L255.2,106.1
				z"/>
		</g>
	</g>
	<g>
		<g>
			<path class="st0" d="M254.8,102.4c-5.5-1.7-11.2-2.7-16.9-3.5c-1.5-0.2-3-0.4-4.4-0.6c-0.7-0.1-1.3-0.2-2-0.3
				c-0.8-0.1-1.5-0.2-2.2,0.2c-0.9,0.5-1.5,1.5-1.9,2.5c-0.4,0.9-0.7,1.9-0.8,2.9c-0.1,1.3,0,2.6-0.1,3.9c0,1.5-0.1,2.9-0.1,4.4
				c-0.1,2.9-0.3,5.8-0.5,8.6c-0.4,5.7-0.8,11.3-1.1,17c-0.3,6.5-0.4,13,0,19.4c0.1,1,0.9,2.1,2,2c1,0,2.1-0.9,2-2
				c-0.8-11.1,0.1-22.1,0.9-33.1c0.4-5.5,0.7-11,0.8-16.4c0-0.7,0-1.4,0-2.1c0-0.3,0-0.7,0-1c0-0.1,0.1-0.6,0-0.8c0,0-0.1,0.5,0,0.2
				c0-0.1,0-0.2,0.1-0.2c0-0.2,0.1-0.4,0.1-0.5c0.1-0.2,0.1-0.4,0.2-0.6c0-0.1,0.1-0.2,0.1-0.3c-0.2,0.5,0,0,0-0.1
				c0.1-0.2,0.2-0.3,0.3-0.5c0.2-0.3-0.1,0.1-0.1,0.1c0,0,0.1-0.1,0.2-0.2c0.3-0.2-0.3,0.2-0.3,0.2c-0.1,0.1-0.7,0-0.4,0.1
				c0.3,0.1,0.7,0.1,1.1,0.1c1.3,0.2,2.8,0.4,4,0.5c6,0.8,12.2,1.9,18.1,3.7c1,0.3,2.2-0.4,2.5-1.4
				C256.5,103.7,255.9,102.7,254.8,102.4L254.8,102.4z"/>
		</g>
	</g>
	<g>
		<g>
			<path class="st0" d="M262.6,125.4c-3.2,0.2-5,3.3-5.3,6.2c-0.2,1.4,0.1,3,0.8,4.3c0.7,1.3,1.9,2.1,3.3,2.6c2.5,1,5.5,0,7.2-2
				c0.9-1.2,1.5-2.5,1.7-4c0.2-1.6,0.4-3.3-0.4-4.7c-0.8-1.4-2.3-2.1-3.8-2.7c-0.7-0.3-1.5-0.5-2.2-0.5c-1-0.1-1.9,0.3-2.7,1
				c-0.8,0.6-0.7,2.2,0,2.8c0.9,0.8,1.9,0.7,2.8,0c0,0-0.4,0.3-0.4,0.2c0-0.1,0.5,0,0.1-0.1c-0.4-0.1,0.6,0.1,0.2,0
				c-0.3-0.1,0.1,0,0.2,0c0.1,0,0.2,0.1,0.3,0.1c0.2,0.1,0.5,0.2,0.7,0.3c0.1,0,0.2,0.1,0.3,0.1c-0.1,0-0.4-0.2-0.1,0
				c0.2,0.1,0.4,0.2,0.5,0.3c0.2,0.1,0.3,0.2,0.5,0.3c0.4,0.2-0.2-0.2,0,0c0,0,0.3,0.2,0.2,0.2c0,0-0.2-0.4-0.1-0.1
				c0,0,0.2,0.4,0.1,0.2c-0.1-0.2,0,0.1,0,0.2c0.1,0.3,0-0.3,0,0c0,0.5,0,1.1-0.1,1.6c0,0.1-0.1,0.4,0,0c0,0.1,0,0.2-0.1,0.3
				c0,0.2-0.1,0.5-0.1,0.7c-0.1,0.2-0.1,0.5-0.2,0.7c0.2-0.4,0.1-0.1,0,0c-0.1,0.1-0.1,0.2-0.2,0.3c-0.1,0.1-0.1,0.2-0.2,0.2
				c-0.2,0.4,0.2-0.2,0,0c-0.1,0.1-0.3,0.3-0.4,0.4c-0.1,0.1-0.2,0.2-0.3,0.2c0,0,0.4-0.2,0.1-0.1c-0.1,0.1-0.5,0.4-0.6,0.4
				c0,0,0.5-0.2,0.1,0c-0.1,0-0.2,0.1-0.3,0.1c-0.1,0-0.2,0-0.3,0.1c-0.3,0.1,0,0,0.1,0c-0.2,0-0.4,0-0.6,0c-0.1,0-0.2,0-0.3,0
				c-0.2,0,0.4,0.1,0,0c-0.2-0.1-0.4-0.1-0.6-0.2c-0.3-0.1,0.3,0.2,0.1,0c-0.1-0.1-0.2-0.1-0.3-0.2c-0.1,0-0.2-0.1-0.2-0.1
				c-0.2-0.1-0.2,0,0.1,0.1c-0.2-0.1-0.4-0.3-0.5-0.5c-0.2-0.2,0,0.1,0.1,0.1c0,0-0.1-0.2-0.2-0.2c0,0-0.2-0.2-0.2-0.3
				c0,0.2,0.1,0.2,0,0c-0.1-0.2-0.1-0.5-0.2-0.7c-0.1-0.3,0,0.4,0,0.1c0-0.1,0-0.3,0-0.4c0-0.2,0-0.6,0-0.8c-0.1,0.4,0,0.1,0,0.1
				c0-0.2,0.1-0.3,0.1-0.5c0.1-0.3,0.1-0.5,0.2-0.8c0.1-0.4,0,0.1,0,0.1c0,0,0.2-0.4,0.2-0.4c0-0.1,0.1-0.2,0.1-0.2
				c0-0.1,0.1-0.1,0.1-0.2c0.1-0.1,0.1-0.1-0.1,0.1c0-0.1,0.4-0.5,0.5-0.5c0,0-0.4,0.3-0.1,0.1c0.1-0.1,0.2-0.1,0.3-0.2
				c0.2-0.1-0.5,0.1,0,0c0.4-0.1-0.4,0,0,0c1-0.1,2.1-0.9,2-2C264.6,126.4,263.8,125.4,262.6,125.4L262.6,125.4z"/>
		</g>
	</g>
	<g>
		<g>
			<path class="st0" d="M287.6,120.4c-1.5,2-1.3,4.9-0.6,7.2c0.5,1.6,1.4,2.8,2.9,3.5c1.1,0.4,2.4,0.5,3.6,0.4
				c1.4-0.1,2.7-0.5,3.8-1.4c1-0.9,1.5-2.1,2.1-3.3c0.6-1.5,0.9-3,0.2-4.5c-0.5-1.1-1.6-2-2.7-2.7c-2.3-1.3-5.4-1.7-7.8-0.6
				c-0.5,0.2-0.9,0.4-1.2,0.9c-0.3,0.4-0.4,1.1-0.2,1.5c0.3,0.9,1.4,1.8,2.5,1.4c0.4-0.2,0.8-0.3,1.2-0.4c0.1,0,0.2,0,0.3-0.1
				c0.4-0.1-0.1,0-0.1,0c0.2,0,0.5,0,0.7,0c0.2,0,0.4,0,0.6,0c0.1,0,0.3,0,0.3,0c0,0-0.5-0.1-0.1,0c0.4,0.1,0.8,0.2,1.2,0.3
				c0,0,0.4,0.2,0.1,0.1c-0.3-0.1,0,0,0.1,0c0.2,0.1,0.4,0.2,0.5,0.3c0.1,0.1,0.4,0.2,0.5,0.3c-0.1-0.2-0.2-0.2-0.1-0.1
				c0.1,0.1,0.2,0.2,0.3,0.3c0.1,0.1,0.2,0.2,0.2,0.3c0.2,0.2-0.2-0.3-0.1-0.1c0,0,0.2,0.3,0.2,0.3c0,0,0-0.1,0-0.1
				c-0.1-0.2-0.1-0.1,0,0c-0.1,0.2,0.3,0.2,0-0.1c0,0,0,0.3,0,0.3c0,0.4,0,0,0-0.1c0,0.1-0.1,0.4-0.1,0.5c-0.1,0.2-0.2,0.5-0.3,0.7
				c-0.1,0.3,0.2-0.4,0,0c0,0.1-0.1,0.2-0.1,0.3c-0.1,0.2-0.2,0.4-0.3,0.5c-0.1,0.2-0.2,0.5-0.4,0.6c0-0.1,0.1-0.1,0.1-0.2
				c0,0.1-0.1,0.1-0.1,0.2c-0.1,0.1-0.1,0.1-0.2,0.2c-0.2,0.2,0.4-0.2,0,0c-0.1,0-0.2,0.1-0.2,0.1c-0.1,0-0.2,0.1-0.2,0.1
				c0.1-0.2,0.3-0.1,0.1,0c-0.2,0.1-0.4,0.1-0.7,0.2c0,0-0.2,0.1-0.3,0c0.1,0,0.2,0,0.3,0c-0.1,0-0.1,0-0.2,0c-0.2,0-0.4,0-0.6,0
				c-0.2,0-0.4,0-0.6,0c-0.1,0-0.2,0-0.3,0c-0.5,0,0.3,0.1-0.1,0c-0.2,0-0.4-0.1-0.7-0.2c-0.3-0.1,0.4,0.2,0,0
				c-0.3-0.1,0,0.1,0.1,0.1c-0.1,0-0.1-0.2-0.2-0.2c0.1,0,0.2,0.3,0.1,0.1c0-0.1-0.1-0.2-0.1-0.2c-0.2-0.4,0.1,0.3,0,0
				c-0.2-0.5-0.3-0.9-0.4-1.4c0-0.1,0-0.2-0.1-0.4c0-0.3-0.1-0.2,0,0c-0.1-0.2-0.1-0.5-0.1-0.7c0-0.3,0-0.5,0-0.8
				c0-0.1,0.1-0.3,0-0.1c-0.1,0.3,0-0.1,0.1-0.2c0-0.1,0-0.2,0.1-0.3c0-0.1,0-0.1,0.1-0.2c-0.1,0.2-0.1,0.3-0.1,0.2
				c0.1-0.2,0.2-0.4,0.4-0.7c0.6-0.8,0.2-2.3-0.7-2.7C289.3,119.1,288.2,119.5,287.6,120.4L287.6,120.4z"/>
		</g>
	</g>
	<g>
		<g>
			<path class="st0" d="M282.8,142.2C282.8,142.2,283,142,282.8,142.2c-0.1,0.1,0.1-0.1,0.2-0.1c0.1-0.1,0.3-0.2,0.4-0.3
				c0.3-0.2,0.6-0.4,1-0.6c0.3-0.2,0.6-0.3,0.9-0.5c0.2-0.1,0.3-0.2,0.5-0.2c0.2-0.1-0.1,0-0.1,0c0.1-0.1,0.3-0.1,0.4-0.1
				c0.3-0.1,0.7-0.2,1-0.3c0.1,0,0.3-0.1,0.4-0.1c0.1,0,0.1,0,0.2,0c0.4-0.1,0,0,0,0c0,0,0.4,0,0.5,0c0.1,0,0.6,0,0.3,0
				c-0.3,0,0.2,0,0.2,0.1c0.1,0,0.3,0.2,0.1,0c-0.2-0.1,0,0,0.1,0.1c0.2,0.1-0.1-0.1-0.1-0.1c0.1,0.1,0.2,0.3-0.1-0.1
				c-0.1-0.2-0.2-0.5-0.1-0.7c0,0,0.2-0.3,0.1-0.1c0,0.1-0.2,0.3-0.1,0.1c0.2-0.2,0,0,0,0c-0.2,0.2,0,0.1,0.1,0
				c-0.3,0.2-0.6,0.4-0.9,0.7c-0.4,0.3-0.8,0.7-1.1,1.2c-0.2,0.4-0.4,0.8-0.5,1.2c0,0.1-0.2,0.5-0.1,0.2c0.1-0.2,0,0,0,0
				c-0.2,0.4,0.2-0.2,0,0c-0.2,0.2,0.1-0.1,0.1-0.1c0.1-0.1,0.2-0.1,0.4-0.1c0.2,0,0.3,0,0.5,0c0.2,0,0.1,0,0,0c0,0,0.3,0.2,0.1,0.1
				c-0.1,0-0.1-0.1-0.2-0.1c-0.3-0.2-0.5-0.4-0.8-0.6c-0.7-0.5-1.5-0.9-2.4-1.2c-0.1,0-0.5-0.1-0.6-0.2c0,0,0.3,0.2,0.1,0
				c-0.1-0.1-0.2-0.1-0.4-0.2c0,0-0.3-0.1,0,0c0.2,0.1-0.1-0.1,0.1,0.1c0.2,0.3-0.1-0.3,0,0.1c0.1,0.1,0.1,0.2,0,0.1
				c0-0.2,0-0.1,0,0.2c-0.1-1-0.9-2.1-2-2c-1,0-2.1,0.9-2,2c0.1,1.4,0.9,2.5,2.1,3.2c0.5,0.3,1.1,0.5,1.6,0.6c0.3,0.1-0.3-0.1,0,0
				c0.1,0.1,0.2,0.1,0.4,0.2c0.2,0.1,0.4,0.2,0.6,0.4c0.1,0.1,0.2,0.1,0.3,0.2c0.1,0.1,0.3,0.1,0,0c0.2,0.1,0.3,0.3,0.4,0.4
				c0.6,0.5,1.3,0.9,2.1,0.9c1.6,0,2.6-1.2,3.1-2.6c0-0.1,0.1-0.2,0.1-0.3c0.1-0.4,0,0,0,0.1c0-0.1,0.1-0.2,0.2-0.3
				c0.1-0.2-0.2,0.2,0,0.1c0.1-0.1,0.2-0.2,0.3-0.2c0,0-0.4,0.3-0.1,0.1c0.2-0.1,0.4-0.3,0.6-0.4c1.2-0.9,2.1-2.2,1.7-3.8
				c-0.7-2.7-4-3-6.2-2.5c-2.3,0.6-4.5,1.8-6.3,3.3c-0.8,0.7-0.7,2.2,0,2.8C280.8,143,281.9,142.9,282.8,142.2L282.8,142.2z"/>
		</g>
	</g>
	<g>
		<g>
			<path class="st0" d="M279,158.4c3.2-1,5.7-3,8.1-5.3c0.5-0.5,1.1-1,1.6-1.6c0.7-0.9,1-1.8,1.1-2.9c0.1-1.7-0.1-3.5-0.2-5.2
				c-0.1-1-0.9-2.1-2-2c-1,0-2.1,0.9-2,2c0.1,1.6,0.2,3.2,0.2,4.7c0,0.2,0,0.3,0,0.5c0,0.1-0.1,0.3,0,0.1c-0.1,0.2-0.1,0.3,0,0.1
				c0.1-0.1,0-0.1-0.1,0.1c0.1-0.2,0,0-0.1,0.1c-0.5,0.5-1,1-1.5,1.4c-0.5,0.5-1,0.9-1.5,1.3c-0.6,0.5-0.7,0.6-1.3,1
				c-0.6,0.4-1.2,0.8-1.8,1.1c-0.1,0.1-0.2,0.1-0.4,0.2c0,0-0.5,0.2-0.3,0.2c-0.1,0-0.7,0.2-0.9,0.3c-1,0.3-1.7,1.4-1.4,2.5
				C276.9,158,277.9,158.7,279,158.4L279,158.4z"/>
		</g>
	</g>
	<g>
		<g>
			<path class="st0" d="M287.8,151.1c3,0.6,6.2,1.2,9.3,0.8c0.6-0.1,1-0.2,1.4-0.6c0.3-0.3,0.6-0.9,0.6-1.4c0-1-0.9-2.1-2-2
				c-1.4,0.2-2.9,0.2-4.3,0c-0.2,0-0.3,0-0.5-0.1c-0.1,0-0.1,0,0.1,0c-0.1,0-0.2,0-0.3,0c-0.3-0.1-0.7-0.1-1-0.2
				c-0.7-0.1-1.4-0.3-2.2-0.4c-1-0.2-2.2,0.3-2.5,1.4C286.1,149.6,286.7,150.9,287.8,151.1L287.8,151.1z"/>
		</g>
	</g>
	<g>
		<g>
			<path class="st0" d="M282.1,155.1c1.5,3.1,3.8,5.9,7.4,6.3c1.7,0.2,3.3-0.3,4.7-1.3c1.4-1.1,2-3,2.1-4.7c0.1-0.9,0-1.8-0.1-2.7
				c0-0.5-0.1-1-0.1-1.5c0-0.3,0-0.5,0-0.8c0-0.1,0-0.2,0-0.3c0-0.3-0.1,0.4,0-0.2c0.2-1-0.3-2.2-1.4-2.5c-1-0.2-2.3,0.3-2.5,1.4
				c-0.2,1.1-0.2,2.2-0.2,3.3c0.1,0.9,0.2,1.8,0.1,2.8c0,0.2,0,0.4-0.1,0.6c0.1-0.5,0,0.2-0.1,0.3c0,0.2-0.1,0.3-0.1,0.5
				c-0.1,0.2-0.1,0.2,0,0c0,0.1-0.1,0.2-0.1,0.3c-0.1,0.1-0.5,0.6-0.1,0.2c-0.1,0.1-0.2,0.2-0.4,0.4c-0.1,0.1-0.1,0.1,0.1-0.1
				c-0.1,0.1-0.2,0.1-0.2,0.2c-0.1,0-0.2,0.1-0.3,0.1c0.3-0.1,0.3-0.1,0.1,0c-0.2,0-0.4,0.1-0.6,0.1c-0.4,0.1,0.4,0,0,0
				c-0.2,0-0.4,0-0.6,0c-0.1,0-0.2,0-0.3,0c0.3,0,0.3,0,0.1,0c-0.2-0.1-0.4-0.1-0.6-0.1c-0.1,0-0.6-0.1-0.1,0
				c-0.4-0.1-0.8-0.4-1.1-0.6c0.4,0.3,0,0-0.1-0.1c-0.2-0.1-0.3-0.3-0.5-0.5c-0.2-0.2-0.3-0.3-0.4-0.5c0.3,0.4-0.1-0.2-0.2-0.3
				c-0.5-0.7-0.9-1.4-1.2-2.2c-0.5-0.9-1.9-1.3-2.7-0.7C281.8,153,281.6,154.1,282.1,155.1L282.1,155.1z"/>
		</g>
	</g>
	<g>
		<g>
			<path class="st0" d="M286,150.4c0.3,0.5,0.6,1,0.9,1.6c-0.1-0.2-0.1-0.3-0.2-0.5c0.4,0.9,0.6,1.8,0.8,2.8c0-0.2,0-0.4-0.1-0.5
				c0,0.4,0.1,0.8,0.1,1.1c0,1,0.9,2,2,2c1.1,0,2-0.9,2-2c-0.1-2.3-0.7-4.6-2-6.5c-0.3-0.4-0.7-0.8-1.2-0.9
				c-0.5-0.1-1.1-0.1-1.5,0.2C285.9,148.2,285.4,149.4,286,150.4L286,150.4z"/>
		</g>
	</g>
	<g>
		<g>
			<path class="st0" d="M224.6,156.2c0.1,4.9,1.9,9.4,4.1,13.7c1,2,2.2,4,3.3,6c1.2,2,2.5,4,4.2,5.7c3.2,3.1,7.5,4.8,11.8,5.8
				c4.8,1.1,9.7,1.7,14.5,1.8c9.8,0.2,19.7-1.5,29.1-4.3c2.3-0.7,4.6-1.4,6.8-2.3c2.4-1,4.5-2.2,6.5-3.9c1.7-1.5,3.2-3.2,4.7-5
				c1.5-1.9,3.1-3.8,4.5-5.7c5.7-7.5,10.5-16.6,10-26.3c-0.1-1.2-0.2-2.5-0.5-3.7c-0.2-1-1.5-1.7-2.5-1.4c-1.1,0.4-1.6,1.4-1.4,2.5
				c0.2,1.1,0.3,1.8,0.3,3c0,1.1,0,2.2-0.1,3.3c0,0.5-0.1,1-0.2,1.3c-0.1,0.6-0.2,1.1-0.3,1.6c-0.2,1.1-0.5,2.2-0.9,3.2
				c-0.7,2.2-1.4,3.9-2.5,5.9c-1.1,2-2.3,3.9-3.5,5.8c-1.3,1.9-2.6,3.5-4,5.3c-1.4,1.7-2.8,3.5-4.3,5.1c-1.5,1.6-2.9,2.9-4.7,4
				c-1.9,1.1-3.9,1.8-6.1,2.5c-4.4,1.4-9,2.6-13.6,3.5c-4.6,0.9-8.9,1.4-13.6,1.6c-2.4,0.1-4.7,0-7.1-0.1c-2.3-0.1-4.4-0.4-6.6-0.8
				c-2.1-0.4-4.3-0.8-6.3-1.5c-0.5-0.1-0.9-0.3-1.4-0.5c-0.2-0.1-0.4-0.2-0.7-0.3c-0.1,0-0.3-0.1-0.4-0.2c-0.3-0.1,0.4,0.2-0.2-0.1
				c-0.9-0.4-1.8-0.9-2.7-1.4c-1-0.6-1.3-0.9-2.1-1.7c-0.8-0.7-1.4-1.5-1.9-2.2c-1.3-1.8-2.3-3.7-3.4-5.6c-1.1-1.9-2.2-3.9-3.1-5.9
				c-0.4-0.8-0.7-1.8-1.1-2.8c-0.3-1-0.6-2.1-0.8-3.2c-0.2-1-0.3-1.7-0.3-2.9c0-1-0.9-2-2-2C225.5,154.3,224.5,155.1,224.6,156.2
				L224.6,156.2z"/>
		</g>
	</g>
</g>
<g>
	<path class="st2" d="M177.1,36.4c-7-5.2-14.8-3.2-19.4-3.2s-17.7-1.1-20.3-0.4c-2.6,0.7-7.8,1.6-8.7,3.6c-0.9,2,1.4,14.5,1.4,20.3
		s2,69.8,2.6,90.4c0.6,20.6-0.9,134.5-2.3,143.2c-1.4,8.7-4.2,13.3-1.9,15.9c2.2,2.6,25.1,2.9,28.6,2.6c3.5-0.3,18.8,1.4,21.2-5.8
		c2.3-7.2-0.6-73,0-118c0.6-44.9-0.2-125.5,0.9-132.7s3.1-9.5,1.4-12.3S177.1,36.4,177.1,36.4z"/>
	<path class="st2" d="M166.3,32.9c0,1.5-0.8,161.4-1,171.2s2,101.3,1.3,104.9"/>
	<path class="st2" d="M175.9,306.1c0,0,0-177.7,0-196.8s1.2-72.9,1.2-72.9"/>
	<line class="st2" x1="166.7" y1="247.3" x2="131.9" y2="246.4"/>
	<line class="st2" x1="175.9" y1="247.3" x2="178.7" y2="247.8"/>
	<path class="st2" d="M149.3,114.5c-8.2,0-8.2-9.6-8.2-9.6V70.8c0,0,0.5-5.9,8.2-6.1c7.7-0.2,7.3,7.6,7.3,7.6l0,36.3
		C156.6,108.6,156.2,114.5,149.3,114.5z"/>
</g>
<g>
	<path class="st2" d="M114,36.4c-7-5.2-14.8-3.2-19.4-3.2s-17.7-1.1-20.3-0.4c-2.6,0.7-7.8,1.6-8.7,3.6c-0.9,2,1.4,14.5,1.4,20.3
		s2,69.8,2.6,90.4c0.6,20.6-0.9,134.5-2.3,143.2s-4.2,13.3-1.9,15.9s25.1,2.9,28.6,2.6c3.5-0.3,18.8,1.4,21.2-5.8s-0.6-73,0-118
		S115,59.6,116.1,52.4s3.1-9.5,1.4-12.3S114,36.4,114,36.4z"/>
	<path class="st2" d="M103.2,32.9c0,1.5-0.8,161.4-1,171.2c-0.2,9.8,2,101.3,1.3,104.9"/>
	<path class="st2" d="M112.8,306.1c0,0,0-177.7,0-196.8s1.2-72.9,1.2-72.9"/>
	<line class="st2" x1="103.6" y1="247.3" x2="68.9" y2="246.4"/>
	<line class="st2" x1="112.8" y1="247.3" x2="115.6" y2="247.8"/>
	<path class="st2" d="M86.2,114.5c-8.2,0-8.2-9.6-8.2-9.6V70.8c0,0,0.5-5.9,8.2-6.1c7.7-0.2,7.3,7.6,7.3,7.6l0,36.3
		C93.5,108.6,93.1,114.5,86.2,114.5z"/>
</g>
<g>
	<path class="st2" d="M50.9,36.4c-7-5.2-14.8-3.2-19.4-3.2s-17.7-1.1-20.3-0.4c-2.6,0.7-7.8,1.6-8.7,3.6C1.7,38.4,4,50.9,4,56.7
		s2,69.8,2.6,90.4S5.7,281.6,4.3,290.3s-4.2,13.3-1.9,15.9s25.1,2.9,28.6,2.6c3.5-0.3,18.8,1.4,21.2-5.8c2.3-7.2-0.6-73,0-118
		c0.6-44.9-0.2-125.5,0.9-132.7c1.1-7.2,3.1-9.5,1.4-12.3C52.7,37.3,50.9,36.4,50.9,36.4z"/>
	<path class="st2" d="M40.2,32.9c0,1.5-0.8,161.4-1,171.2s2,101.3,1.3,104.9"/>
	<path class="st2" d="M49.8,306.1c0,0,0-177.7,0-196.8s1.2-72.9,1.2-72.9"/>
	<line class="st2" x1="40.6" y1="247.3" x2="5.8" y2="246.4"/>
	<line class="st2" x1="49.8" y1="247.3" x2="52.6" y2="247.8"/>
	<path class="st2" d="M23.2,114.5c-8.2,0-8.2-9.6-8.2-9.6V70.8c0,0,0.5-5.9,8.2-6.1c7.7-0.2,7.3,7.6,7.3,7.6l0,36.3
		C30.4,108.6,30.1,114.5,23.2,114.5z"/>
</g>
</svg>
