<?xml version="1.0" encoding="utf-8"?>
<!-- Generator: Adobe Illustrator 26.5.1, SVG Export Plug-In . SVG Version: 6.00 Build 0)  -->
<svg version="1.1" id="Layer_1" xmlns="http://www.w3.org/2000/svg" xmlns:xlink="http://www.w3.org/1999/xlink" x="0px" y="0px"
	 viewBox="0 0 170 118.1" style="enable-background:new 0 0 170 118.1;" xml:space="preserve">
<style type="text/css">
	.st0{fill:#555555;}
	.st1{fill:#FFFFFF;stroke:#555555;stroke-width:2;stroke-miterlimit:10;}
</style>
<g>
	<g>
		<g>
			<path class="st0" d="M141.9,75.4c6.2-2.5,12.6-5,17.8-9.2c1.2-1,2.4-2.1,3.3-3.4c1.1-1.4,1.8-2.8,2.5-4.4
				c1.5-3.3,2.8-6.8,3.5-10.4c0.7-3.6,0.8-7.1,0.9-10.8c0-2.9,0.1-5.8,0-8.6c-0.1-1.6-0.4-3.3-0.6-4.9c-0.4-2.2-0.9-4.3-1.7-6.4
				c-1-2.7-2.1-5.4-3.7-7.8c-1.3-1.9-2.9-3.6-4.8-4.9C156.9,3.1,154.4,2,152,1c-0.8-0.3-1.5-0.6-2.3-1c-0.5-0.2-1.1,0.2-1.2,0.7
				c-0.2,0.6,0.2,1,0.7,1.2c4.5,1.8,9.3,3.7,12.3,7.6c1.5,1.9,2.6,4.2,3.5,6.4c0.7,1.8,1.4,3.6,1.8,5.5c0.5,1.9,0.8,3.9,1,5.9
				c0.3,2.6,0.2,5.3,0.2,7.9c0,3.3,0,6.5-0.4,9.7c-0.4,3.4-1.4,6.8-2.6,9.9c-1.2,3-2.6,6-5,8.3c-4.5,4.5-10.8,7-16.6,9.4
				c-0.7,0.3-1.4,0.6-2.1,0.8c-0.5,0.2-0.9,0.7-0.7,1.2C140.8,75.2,141.4,75.7,141.9,75.4L141.9,75.4z"/>
		</g>
	</g>
	<g>
		<g>
			<path class="st0" d="M148.9,0.2C142.5,4.9,136,9.5,129.4,14c-6.5,4.5-13.1,9-19.8,13.4S96.2,36,89.5,40.2S75.8,48.5,69,52.4
				s-13.8,7.9-20.8,11.7c-0.9,0.5-1.7,0.9-2.6,1.4c-1.1,0.6-0.1,2.3,1,1.7c7-3.8,14-7.6,20.9-11.6c6.9-4,13.8-8,20.6-12.2
				c6.8-4.2,13.5-8.4,20.2-12.7c6.7-4.3,13.3-8.8,19.9-13.3c6.6-4.5,13.1-9.1,19.5-13.8c0.8-0.6,1.6-1.2,2.4-1.7
				c0.4-0.3,0.7-0.9,0.4-1.4C150,0.1,149.3-0.2,148.9,0.2L148.9,0.2z"/>
		</g>
	</g>
	<g>
		<g>
			<path class="st0" d="M45.4,64.1c-8,3.8-15.9,7.7-23.8,11.7c-4,2-7.9,4-11.8,6.1c-3.4,1.7-7.3,3.5-9,7.1c-0.8,1.6-1.1,3.6-0.4,5.3
				c0.6,1.6,1.8,2.9,3.3,3.6c3.6,1.7,6.9-0.6,9.6-2.9c6.1-5.2,12.9-9.2,19.8-13.2c3.4-1.9,7-3.7,10.2-6c3-2,5.7-5,5.5-8.8
				c-0.1-0.9-0.3-1.8-0.7-2.6c-0.6-1.1-2.3-0.1-1.7,1c1.6,3.1-0.8,6.3-3.2,8.1c-1.4,1.1-3,2-4.6,2.9c-1.6,0.9-3.2,1.8-4.9,2.8
				c-6.5,3.7-13,7.3-18.9,12c-1.4,1.1-2.7,2.3-4.1,3.4c-1.2,1-2.7,1.9-4.3,1.9c-1.4,0-2.8-0.7-3.6-1.8c-0.9-1.3-1-2.8-0.5-4.3
				c1.2-3.4,5-5,8-6.6c3.7-1.9,7.4-3.8,11.1-5.7c7.4-3.7,14.8-7.4,22.2-10.9c0.9-0.4,1.9-0.9,2.8-1.3C47.6,65.3,46.6,63.6,45.4,64.1
				L45.4,64.1z"/>
		</g>
	</g>
	<g>
		<g>
			<path class="st0" d="M149.1,1.1c-0.9,3.2-3.9,5.1-6.4,6.9c-3.5,2.4-7.1,4.8-10.6,7.2c-7.1,4.8-14.2,9.7-21.3,14.5
				c-6.7,4.6-13.4,9.2-20.1,13.6c-6.7,4.4-13.4,8.7-20.3,12.8c-6.9,4-13.9,7.8-21.1,11.1c-0.9,0.4-1.8,0.8-2.8,1.2
				c-0.5,0.2-0.6,0.9-0.4,1.4c0.3,0.5,0.9,0.6,1.4,0.4c7.4-3.2,14.6-7,21.6-11c7-4,13.9-8.3,20.6-12.8c6.8-4.5,13.5-9.1,20.2-13.6
				c7.2-4.9,14.3-9.8,21.5-14.6c3.6-2.5,7.2-4.9,10.8-7.4c2.8-1.9,6.1-3.8,7.9-6.8c0.4-0.7,0.7-1.5,1-2.3
				C151.4,0.4,149.5-0.2,149.1,1.1L149.1,1.1z"/>
		</g>
	</g>
	<g>
		<g>
			<path class="st1" d="M141.1,81.2c3-2.2,2.3-5.7,0.4-7.8s-7.2-3.8-9.5-1.1s-1.6,6.2,0.1,8.2C133.9,82.5,137.5,83.8,141.1,81.2z"/>
		</g>
		<g>
			<g>
				<path class="st0" d="M133,80.4c-0.9-0.8-1.8-0.4-2.8,0.1c-1,0.5-2,1.1-3,1.6c-2,1.1-4.1,2.2-6.1,3.4c-4,2.3-8,4.8-11.9,7.3
					c-2.2,1.4-4.4,2.9-6.5,4.4c-1,0.7,0,2.5,1,1.7c7.2-5,14.6-9.6,22.2-13.9c1.1-0.6,2.1-1.2,3.2-1.7c0.5-0.3,1-0.6,1.6-0.8
					c0.3-0.1,0.6-0.3,0.8-0.4c0,0,0.1-0.1,0.2-0.1c0.2-0.1,0-0.1,0.2,0c-0.1-0.1-0.3-0.2-0.4-0.3c0,0,0.1,0.1,0.1,0.1
					C132.6,82.6,134,81.2,133,80.4L133,80.4z"/>
			</g>
		</g>
		<g>
			<g>
				<path class="st0" d="M130.8,77c-9.2-4.2-19.6-1.5-28.8,1.3c-2.5,0.7-5,1.6-6.9,3.5c-0.7,0.7,0,1.9,1,1.7
					c5.5-1.3,11.1-2.6,16.7-2.4c-0.1-0.7-0.2-1.3-0.3-2c-9.9,1.7-19.4,5.9-27.4,11.9c-2.3,1.7-4.5,3.6-6.5,5.6c-0.7,0.7,0,1.9,1,1.7
					c5.3-1.5,10.8-2.7,16.2-3.6c-0.2-0.6-0.4-1.3-0.5-1.9c-2.8,0.8-5.5,1.7-8.2,2.7c-2.4,0.9-4.8,1.8-7,3.1c-2,1.2-3.8,2.7-4.9,4.8
					c-1,2-1.5,4.2-1.9,6.4c-0.4,2.4-0.9,4.9-2.4,6.9c-0.4,0.6,0.2,1.6,0.9,1.5c8.4-0.6,16.6-3.1,24-7.2c-0.5-0.5-0.9-0.9-1.4-1.4
					c-1.3,2-3.1,3.6-5.1,4.9c-0.9,0.6-0.4,2.1,0.8,1.8c5.5-1.5,11-3.1,16.5-4.6c2.4-0.7,4.9-1.3,6.9-2.8c2-1.5,3.5-3.6,4.8-5.8
					c1.5-2.5,2.8-5.2,3.8-7.9c-0.7-0.1-1.3-0.2-2-0.3c0.2,3.7-0.9,7.3-3.1,10.3c-0.5,0.7,0.3,1.7,1.1,1.5c8.1-2.5,14.9-8.7,18-16.6
					c1-2.5,1.7-5.3,0.4-7.8c-0.6-1.1-2.3-0.1-1.7,1c1,1.9,0.2,4.2-0.5,6c-0.7,1.8-1.6,3.4-2.7,5c-2.1,3.1-4.9,5.8-8.2,7.8
					c-1.8,1.1-3.8,2-5.8,2.6c0.4,0.5,0.8,1,1.1,1.5c2.3-3.3,3.5-7.3,3.3-11.3c0-1.2-1.6-1.3-2-0.3c-0.8,2.3-1.9,4.6-3.1,6.7
					c-1.2,2-2.5,4.1-4.3,5.6c-1.8,1.5-4.2,2.1-6.4,2.7c-2.6,0.7-5.3,1.5-7.9,2.2c-3,0.8-5.9,1.7-8.9,2.5c0.3,0.6,0.5,1.2,0.8,1.8
					c2.3-1.5,4.3-3.4,5.8-5.6c0.6-0.9-0.5-1.8-1.4-1.4c-7.1,3.9-14.9,6.3-23,6.9c0.3,0.5,0.6,1,0.9,1.5c2.7-3.5,2.3-8.2,3.8-12.2
					c1.7-4.4,6.5-6.2,10.5-7.8c2.9-1.1,5.8-2.1,8.8-2.9c1.3-0.4,0.7-2.1-0.5-1.9c-5.5,0.9-10.9,2.1-16.2,3.6c0.3,0.6,0.6,1.1,1,1.7
					c7-6.9,15.6-12.1,25-15.1c2.7-0.8,5.4-1.5,8.1-2c1.1-0.2,0.8-1.9-0.3-2c-5.9-0.1-11.6,1.2-17.3,2.5c0.3,0.6,0.6,1.1,1,1.7
					c1.5-1.5,3.5-2.2,5.5-2.8c2.2-0.7,4.5-1.3,6.7-1.9c4.5-1.1,9.1-1.9,13.8-1.6c2.5,0.2,5,0.8,7.3,1.8c0.5,0.2,1.1,0.1,1.4-0.4
					C131.4,78,131.3,77.3,130.8,77L130.8,77z"/>
			</g>
		</g>
	</g>
</g>
</svg>
