<?xml version="1.0" encoding="utf-8"?>
<!-- Generator: Adobe Illustrator 26.5.1, SVG Export Plug-In . SVG Version: 6.00 Build 0)  -->
<svg version="1.1" id="Layer_1" xmlns="http://www.w3.org/2000/svg" xmlns:xlink="http://www.w3.org/1999/xlink" x="0px" y="0px"
	 viewBox="0 0 349.1 118.3" style="enable-background:new 0 0 349.1 118.3;" xml:space="preserve">
<style type="text/css">
	.st0{fill:#FFFFFF;stroke:#555555;stroke-width:3;stroke-miterlimit:10;}
	.st1{fill:#555555;}
</style>
<g>
	<g>
		<path class="st0" d="M25.1,17.8c0,0,11.3-16.7,30.3-16.3s39,16.7,45.3,21.3c6.3,4.7,34.9,27.7,73.8,27c38.9-0.7,65.2-24,69.9-27
			s28.3-19.7,44.7-19.3s24.7,7,24.7,7l27.4,48.7c0,0-20.4,30.3-24.1,31s-127.7,15.3-127.7,15.3s-91.3-4.3-105.7-4.7
			c-14.3-0.3-75-27.3-73.7-29c1.3-1.7-3.2-13-3.2-13L25.1,17.8z"/>
		<path class="st0" d="M38.4,40.8c-22.3,1.5-34.3,18.3-36,29s-4.3,36.7,25.7,47h296.7c0,0,29.7-7,21.3-47c0,0-4.7-23.7-33.3-25.3
			c0,0-14.3-2-41.7,14s-52.7,38.7-94.7,38c-42-0.7-57-14-67.7-20.3S58.4,39.5,38.4,40.8z"/>
	</g>
	<g>
		<g>
			<path class="st1" d="M39.4,12.5c-1.7,6.9-3.5,13.8-5.6,20.7c-0.6,1.9,2.3,2.6,2.9,0.8c2.1-6.8,4-13.7,5.6-20.7
				C42.7,11.4,39.8,10.6,39.4,12.5L39.4,12.5z"/>
		</g>
	</g>
	<g>
		<g>
			<path class="st1" d="M65.2,13.8c-1.6,7-3.6,13.9-6.2,20.6c-0.3,0.8,0.3,1.6,1,1.8c0.8,0.2,1.6-0.3,1.8-1
				c2.5-6.7,4.6-13.6,6.2-20.6c0.2-0.8-0.2-1.6-1-1.8C66.3,12.5,65.4,13,65.2,13.8L65.2,13.8z"/>
		</g>
	</g>
	<g>
		<g>
			<path class="st1" d="M88.8,23.8c-2.4,6.7-5.5,13.2-9.4,19.2c-1,1.6,1.6,3.1,2.6,1.5c4-6.3,7.2-13,9.7-20c0.3-0.8-0.3-1.6-1-1.8
				C89.8,22.5,89,23.1,88.8,23.8L88.8,23.8z"/>
		</g>
	</g>
	<g>
		<g>
			<path class="st1" d="M105.6,36.1c0,6.6-3.6,12.5-6.9,17.9c-1,1.7,1.6,3.2,2.6,1.5c3.6-5.9,7.3-12.3,7.3-19.4
				C108.6,34.2,105.6,34.2,105.6,36.1L105.6,36.1z"/>
		</g>
	</g>
	<g>
		<g>
			<path class="st1" d="M123.9,47.4c-0.9,7.7-4.7,14.7-8.1,21.6c-0.4,0.7-0.2,1.6,0.5,2.1c0.7,0.4,1.7,0.2,2.1-0.5
				c3.7-7.4,7.6-14.8,8.5-23.1c0.1-0.8-0.8-1.5-1.5-1.5C124.5,45.9,124,46.6,123.9,47.4L123.9,47.4z"/>
		</g>
	</g>
	<g>
		<g>
			<path class="st1" d="M144.8,53.5c-2.4,9.1-4.8,18.2-7.3,27.3c-0.5,1.9,2.4,2.7,2.9,0.8c2.4-9.1,4.8-18.2,7.3-27.3
				C148.1,52.4,145.2,51.6,144.8,53.5L144.8,53.5z"/>
		</g>
	</g>
	<g>
		<g>
			<path class="st1" d="M164.4,58.5c0.9,8.4,0.6,17-1.2,25.3c-0.2,0.8,0.2,1.6,1,1.8c0.7,0.2,1.7-0.3,1.8-1
				c1.8-8.6,2.3-17.4,1.3-26.1c-0.1-0.8-0.6-1.5-1.5-1.5C165.1,57,164.3,57.7,164.4,58.5L164.4,58.5z"/>
		</g>
	</g>
	<g>
		<g>
			<path class="st1" d="M187.4,58.2c-0.8,8.6-0.4,17.2,1.1,25.7c0.1,0.8,1.1,1.2,1.8,1c0.8-0.2,1.2-1,1-1.8
				c-1.4-8.2-1.7-16.6-1-24.9c0.1-0.8-0.7-1.5-1.5-1.5C188,56.7,187.5,57.4,187.4,58.2L187.4,58.2z"/>
		</g>
	</g>
	<g>
		<g>
			<path class="st1" d="M204.6,54.3c1.6,7.3,3.4,14.5,5.6,21.7c0.6,1.8,3.5,1.1,2.9-0.8c-2.2-7.1-4.1-14.4-5.6-21.7
				c-0.2-0.8-1.1-1.3-1.8-1C204.8,52.6,204.4,53.5,204.6,54.3L204.6,54.3z"/>
		</g>
	</g>
	<g>
		<g>
			<path class="st1" d="M221.6,47.9c2.3,6.8,4.6,13.6,6.9,20.4c0.3,0.8,1,1.3,1.8,1c0.7-0.2,1.3-1.1,1-1.8
				c-2.3-6.8-4.6-13.6-6.9-20.4c-0.3-0.8-1-1.3-1.8-1C221.9,46.3,221.4,47.1,221.6,47.9L221.6,47.9z"/>
		</g>
	</g>
	<g>
		<g>
			<path class="st1" d="M237.9,37.6c0.8,3.3,2.8,6.2,4.6,9.1c1.9,3.1,3.8,6.2,5.7,9.2c1,1.6,3.6,0.1,2.6-1.5c-1.9-3-3.7-6-5.6-9
				c-1.7-2.7-3.7-5.4-4.4-8.5C240.3,34.9,237.4,35.7,237.9,37.6L237.9,37.6z"/>
		</g>
	</g>
	<g>
		<g>
			<path class="st1" d="M254.8,25.9c4.4,7,8.5,14.2,12.4,21.5c0.9,1.7,3.5,0.2,2.6-1.5c-3.9-7.3-8-14.5-12.4-21.5
				C256.4,22.7,253.8,24.3,254.8,25.9L254.8,25.9z"/>
		</g>
	</g>
	<g>
		<g>
			<path class="st1" d="M273.9,15.8c2.4,3.6,4.8,7.2,7.2,10.8c2.1,3.2,4.2,6.4,5.3,10.1c0.6,1.8,3.5,1.1,2.9-0.8
				c-1.2-3.9-3.3-7.3-5.5-10.7c-2.4-3.7-4.9-7.3-7.4-10.9c-0.5-0.7-1.3-1-2.1-0.5C273.7,14.1,273.4,15.1,273.9,15.8L273.9,15.8z"/>
		</g>
	</g>
	<g>
		<g>
			<path class="st1" d="M296.7,12.3c4.3,7.2,7.1,15.3,8.2,23.6c0.1,0.8,1.1,1.2,1.8,1c0.9-0.2,1.2-1,1-1.8
				c-1.2-8.6-4.1-16.9-8.5-24.3C298.3,9.2,295.7,10.7,296.7,12.3L296.7,12.3z"/>
		</g>
	</g>
</g>
</svg>
