<?xml version="1.0" encoding="utf-8"?>
<!-- Generator: Adobe Illustrator 26.5.1, SVG Export Plug-In . SVG Version: 6.00 Build 0)  -->
<svg version="1.1" id="Layer_1" xmlns="http://www.w3.org/2000/svg" xmlns:xlink="http://www.w3.org/1999/xlink" x="0px" y="0px"
	 viewBox="0 0 324.6 297" style="enable-background:new 0 0 324.6 297;" xml:space="preserve">
<style type="text/css">
	.st0{fill:none;stroke:#555555;stroke-width:4;stroke-miterlimit:10;}
	.st1{fill:#555555;stroke:#555555;stroke-width:3;stroke-miterlimit:10;}
</style>
<path class="st0" d="M150.5,21.4c37.7,1,86.8-1.5,127.2,37.8s46.6,88.6,44.6,116.6c-3.5,48.3-55.6,105.2-61.3,108.1
	c-5.7,2.9-65.5,11.8-104.3,11.1S56.3,282.7,53.8,281.3C51.3,279.9,0.5,236.9,2,179.9S22.2,79.5,52.7,57.7S109.9,20.3,150.5,21.4z"/>
<path class="st0" d="M26,87c0,0-6.8-31.7-3.7-47.2s7.5-15.9,9.9-16.2s13.7-0.2,24.8,2.3s24.3,8.8,27.2,11.5"/>
<path class="st0" d="M228.3,29.8c0,0,48.7-27.2,59.4-27.6c10.7-0.4,9.4-0.5,14.4,1.2s8.8,9.6,10.5,17c1.7,7.4,0.7,23.5-1.1,42.6
	c-0.7,6.9-8.1,29.8-8.1,29.8"/>
<path class="st1" d="M125.9,110.3c35.4,0,50.1,19.4,56.6,29.8s11.7,36.3,1.8,61.5c-9.8,25.2-40.3,34.4-64.9,32.6
	s-46.7-21.5-51.4-38.4c-4.6-16.9-9.5-45.5,12.3-65.8S125.9,110.3,125.9,110.3z"/>
</svg>
