<?xml version="1.0" encoding="utf-8"?>
<!-- Generator: Adobe Illustrator 24.2.1, SVG Export Plug-In . SVG Version: 6.00 Build 0)  -->
<svg version="1.1" id="Layer_1" xmlns="http://www.w3.org/2000/svg" xmlns:xlink="http://www.w3.org/1999/xlink" x="0px" y="0px"
	 viewBox="0 0 231.2 157.1" style="enable-background:new 0 0 231.2 157.1;" xml:space="preserve">
<style type="text/css">
	.st0{fill:#555555;stroke:#555555;stroke-miterlimit:10;}
</style>
<g>
	<g>
		<g>
			<path class="st0" d="M67.5,101C71,88.7,87.2,79.5,98.8,87.2c3,2,4.8,5.1,4.8,8.7c0,4.1-2,8.2-4,11.6c-1.9,3.1-4.4,5.7-7.7,7.3
				c-3.1,1.5-6.7,2-10.1,1.4c-7.6-1.3-13.4-8.2-13.7-15.8c-0.1-1.3-2.1-1.3-2,0c0.3,7.5,5.4,14.5,12.5,17c7.2,2.5,15.8,0,20.6-5.9
				c5-6.2,9.4-16.5,3.6-23.5c-4.8-5.7-13.4-6.7-20.2-4.6c-8,2.4-14.7,8.9-17.1,17C65.2,101.7,67.2,102.2,67.5,101L67.5,101z"/>
		</g>
	</g>
	<g>
		<g>
			<path class="st0" d="M75.3,109.8c-0.4-3.7,0.6-7.6,3-10.5c2.2-2.7,5.4-4.5,8.9-5c1.3-0.2,0.7-2.1-0.5-1.9
				c-8.3,1.3-14.3,9.1-13.4,17.5C73.4,111,75.4,111,75.3,109.8L75.3,109.8z"/>
		</g>
	</g>
	<g>
		<g>
			<path class="st0" d="M77.4,102.6c2.7,2.6,6.4,4,10.2,3.8c1.3-0.1,1.3-2.1,0-2c-3.2,0.2-6.4-1-8.7-3.2
				C77.9,100.3,76.5,101.7,77.4,102.6L77.4,102.6z"/>
		</g>
	</g>
	<g>
		<g>
			<path class="st0" d="M23.9,57.8c-2.6-5.1-9.8-6.1-13.4-1.5c-1.9,2.4-2.2,5.5-2.5,8.4c-0.4,3.7-0.7,7.3-0.9,11
				c-0.2,3-0.4,6.2,1.5,8.8c1.6,2.2,4.3,3.4,7,3.2c3.4-0.2,6.3-2.2,9.2-3.8c2.6-1.5,5.3-2.6,6-5.8c0.8-3.3,0.4-7-1-10.1
				c-1.4-3.4-4.1-6.2-5.6-9.6c-0.5-1.2-2.2-0.2-1.7,1c1,2.4,2.6,4.4,4,6.6c1.5,2.3,2.5,4.9,2.6,7.7c0.1,2.5,0,5.3-2.4,6.7
				c-2.3,1.4-4.7,2.9-7.2,4.1s-5.3,1.9-7.8,0.3c-2.3-1.5-2.9-4-2.8-6.5c0.1-2.9,0.3-5.8,0.6-8.7c0.2-2.8,0.4-5.6,1-8.4
				c0.6-2.7,2.1-5.1,4.9-5.7c2.8-0.7,5.5,0.9,6.8,3.4C22.8,60,24.5,59,23.9,57.8L23.9,57.8z"/>
		</g>
	</g>
	<g>
		<g>
			<path class="st0" d="M15.9,90.4c-2.1,1.8-2.9,4.5-3.7,7c-0.5,1.5-1,3-1.4,4.5c-0.4,1.4-1.1,3.1-1,4.5c0.1,1.2,0.9,2.4,2.2,2.4
				c1.4,0,2-1.3,2.5-2.4c1.3-2.7,2.5-5.5,3.4-8.4c0.5-1.5,1-3,1.2-4.6c0.2-1.4-0.1-2.6-1.2-3.4c-1-0.8-2,1-1,1.7
				c0.7,0.5,0,2.3-0.1,3c-0.4,1.4-0.8,2.8-1.3,4.1c-0.5,1.4-1,2.7-1.6,4.1c-0.3,0.7-0.6,1.3-0.9,2c-0.2,0.4-0.4,0.7-0.5,1.1
				c-0.1,0.2-0.3,0.7-0.5,0.8c-0.1,0.1-0.2-0.1-0.3-0.4s0-0.7,0.1-1c0.2-0.7,0.4-1.5,0.6-2.2c0.4-1.5,0.8-2.9,1.3-4.4
				c0.8-2.4,1.5-5.3,3.5-7C18.3,91,16.9,89.6,15.9,90.4L15.9,90.4z"/>
		</g>
	</g>
	<g>
		<g>
			<path class="st0" d="M52.2,114c-2.8,3.4-3.7,8.1-2.4,12.3c0.6,2,1.8,4.2,3.6,5.5c1.9,1.3,4.5,1.3,6.6,0.5
				c2.3-0.9,4.3-2.5,6.1-4.2c1.6-1.5,3.1-3.3,3.9-5.4c1.6-4.3-0.9-8.7-4.5-11.1c-2.1-1.3-4.7-2.2-7.2-1.8c-2.8,0.4-4.4,2.4-5.9,4.6
				c-0.7,1.1,1,2.1,1.7,1c1.1-1.5,2.2-3.1,4.2-3.6c1.8-0.4,3.9,0.2,5.5,1c3,1.6,5.5,4.9,4.6,8.4c-0.8,3.5-4.4,6.6-7.4,8.3
				c-1.6,1-3.6,1.6-5.4,1c-1.8-0.6-2.9-2.5-3.5-4.1c-1.4-3.6-0.8-8,1.7-11C54.4,114.4,53,113,52.2,114L52.2,114z"/>
		</g>
	</g>
	<g>
		<g>
			<path class="st0" d="M5.7,136.5c-5,0.5-6.6,6.1-5.2,10.3c1.5,4.2,5.1,8.7,9.6,9.9c2.7,0.7,5.4,0.1,8-0.6c2.3-0.7,4.3-1.6,5.5-3.9
				c2-4.1,0.8-9-2.2-12.3c-3.7-4.1-9.7-5.1-15-4.2c-1.3,0.2-0.7,2.1,0.5,1.9c3.8-0.7,8-0.2,11.3,2.1c2.9,2,4.8,5.7,4.3,9.2
				c-0.3,1.8-1.1,3.6-2.8,4.4c-1.8,0.9-4.3,1.5-6.3,1.6c-4.1,0.3-7.2-2.5-9.4-5.7c-1.3-1.9-2.4-4.3-2.1-6.7c0.3-1.9,1.7-3.9,3.7-4.1
				C7,138.4,7,136.4,5.7,136.5L5.7,136.5z"/>
		</g>
	</g>
	<g>
		<g>
			<path class="st0" d="M4.3,136.6c-0.8-4.7,1.3-9.4,2.8-13.7c1.6-4.5,3.3-9.1,4.9-13.6c0.4-1.2-1.5-1.7-1.9-0.5
				c-1.8,4.8-3.5,9.7-5.3,14.5c-1.6,4.5-3.3,9-2.5,13.8C2.6,138.4,4.5,137.8,4.3,136.6L4.3,136.6z"/>
		</g>
	</g>
	<g>
		<g>
			<path class="st0" d="M14.9,92c0.3-1.7,0.6-3.3,0.9-5c0.1-0.5-0.1-1.1-0.7-1.2c-0.5-0.1-1.1,0.1-1.2,0.7c-0.3,1.7-0.6,3.3-0.9,5
				c-0.1,0.5,0.1,1.1,0.7,1.2C14.2,92.8,14.8,92.5,14.9,92L14.9,92z"/>
		</g>
	</g>
	<g>
		<g>
			<path class="st0" d="M25.1,153.3c6.8-0.7,13.2-2.8,19.3-6c3-1.6,6-3.4,9.3-4.6c3.3-1.2,6.8-1.9,10.2-2.5
				c13.8-2.6,27.1-6.6,39.9-12.4c12.5-5.7,24.3-13,35.6-20.7c5.3-3.6,10.9-7.2,15.6-11.6c4.6-4.2,7.8-9.4,9.5-15.4
				c4.3-15.2-1.2-30.7-2.7-45.9c-0.1-1.3-2.1-1.3-2,0c1.3,13.4,5.8,26.9,3.8,40.5c-0.9,6.1-3.2,12-7.3,16.7
				c-4.2,4.8-9.6,8.3-14.8,11.9c-11.1,7.6-22.4,14.9-34.5,20.8c-12.4,6.1-25.5,10.6-39,13.3c-3.8,0.8-7.6,1.3-11.3,2.3
				c-3.5,0.9-6.7,2.4-9.9,4.1c-3.4,1.8-6.7,3.7-10.4,5c-3.6,1.3-7.4,2.2-11.2,2.6C23.8,151.4,23.8,153.4,25.1,153.3L25.1,153.3z"/>
		</g>
	</g>
	<g>
		<g>
			<path class="st0" d="M21.7,56c3.8-4.6,7.6-9.2,11.6-13.6C37,38,40.8,33.6,45,29.7c4.3-4,9.2-7.4,14-10.9c2.5-1.8,4.9-3.6,7.4-5.4
				c2.2-1.6,4.4-3.1,6.9-4c5.2-1.9,10.8-2.9,16.2-4.1c5.7-1.2,11.5-2.4,17.3-3c5.6-0.6,11.4-0.6,16.8,0.9c5.4,1.5,10.1,4.6,14.7,7.7
				c8.4,5.8,18.2,12.5,20.4,23.2c0.3,1.3,2.2,0.7,1.9-0.5c-2-9.6-9.9-16.2-17.4-21.7c-4.5-3.2-9.1-6.6-14.2-8.9
				c-5-2.2-10.6-3.1-16.2-3c-5.9,0.1-11.8,1.1-17.7,2.2c-5.9,1.1-11.8,2.5-17.7,4c-2.5,0.6-5,1.3-7.3,2.5c-2.7,1.3-5,3.3-7.4,5
				c-4.9,3.6-9.8,7-14.6,10.8c-5.2,4.1-9.7,9.1-14.2,14c-4.7,5.3-9.3,10.7-13.8,16.2C19.4,55.5,20.8,57,21.7,56L21.7,56z"/>
		</g>
	</g>
	<g>
		<g>
			<path class="st0" d="M162.2,34.1c3.7-5,8.2-9.6,13.7-12.5c6-3.2,12.6-3.3,18.9-1.2c6.4,2.1,12.4,5.8,17.8,9.8
				c2.7,2,5.3,4.1,7.7,6.4c2.4,2.2,4.8,4.6,6.7,7.3c2,2.9,2.7,6,1.8,9.5c-0.9,3.3-2.9,6.4-4.5,9.4c-3.4,6.3-7,12.6-11.7,18.2
				c-4.5,5.4-9.7,10.5-15.1,15.1c-5,4.3-10.6,7.8-16.5,10.8c-13.2,6.7-27.6,10.4-41.8,14.1c-1.2,0.3-0.7,2.3,0.5,1.9
				c13.5-3.5,27-7.1,39.7-13.1c6.2-2.9,12-6.4,17.4-10.6c5.9-4.7,11.4-10.1,16.3-15.8c4.9-5.6,8.7-12,12.2-18.5
				c3.1-5.7,7.9-12.6,5-19.3c-1.3-3.1-3.8-5.7-6.1-8.1c-2.4-2.5-4.9-4.8-7.6-6.9c-5.5-4.4-11.5-8.3-18-11c-7.1-3-14.8-3.9-22-0.7
				c-6.6,2.9-11.8,8.4-16.1,14.1C159.7,34.2,161.5,35.2,162.2,34.1L162.2,34.1z"/>
		</g>
	</g>
	<g>
		<g>
			<path class="st0" d="M162,43.8c4.4-5,3.5-12.3,7.5-17.5c0.8-1-1-2-1.7-1c-1.9,2.5-2.8,5.6-3.5,8.6c-0.8,3-1.5,6.1-3.6,8.5
				C159.7,43.3,161.1,44.7,162,43.8L162,43.8z"/>
		</g>
	</g>
	<g>
		<g>
			<path class="st0" d="M167.7,30.6c8.5-5.1,18.8-5.7,27.9-1.9c8.8,3.6,16.2,10.4,23.1,16.7c4.2,3.9,7.3,8.5,7.9,14.4
				c0.1,1.3,2.1,1.3,2,0c-0.5-5.2-2.7-9.9-6.3-13.6c-3.6-3.8-7.7-7.1-11.7-10.4c-7.9-6.3-16.9-11.6-27.3-11.6
				c-5.9,0-11.6,1.7-16.7,4.7C165.6,29.6,166.6,31.3,167.7,30.6L167.7,30.6z"/>
		</g>
	</g>
	<g>
		<g>
			<path class="st0" d="M221.7,68.7c-4.8,13.4-11.9,26.2-22,36.3c-10,10.1-22.6,17.2-35.8,22.3c-1.8,0.7-3.7,1.4-5.5,2
				c-1,0.3-2.1,0.7-3.2,0.5c-1.1-0.2-2-0.9-2.9-1.5c-3.8-2.6-7.6-5.2-11.4-7.8c-1.1-0.7-2.1,1-1,1.7c3.5,2.4,7,4.8,10.6,7.2
				c1.5,1,2.9,2.1,4.7,2.3c1.9,0.2,3.7-0.6,5.4-1.2c6.9-2.4,13.6-5.3,20-8.9c13-7.3,24-17.3,32-29.9c4.5-7.1,8.1-14.7,10.9-22.6
				C224.1,68,222.2,67.5,221.7,68.7L221.7,68.7z"/>
		</g>
	</g>
</g>
</svg>
